<?xml version="1.0" encoding="utf-8"?>
<!-- Generator: Adobe Illustrator 25.2.3, SVG Export Plug-In . SVG Version: 6.00 Build 0)  -->
<svg version="1.1" id="Layer_1" xmlns="http://www.w3.org/2000/svg" xmlns:xlink="http://www.w3.org/1999/xlink" x="0px" y="0px"
	 viewBox="0 0 1000 1000" style="enable-background:new 0 0 1000 1000;" xml:space="preserve">
<style type="text/css">
	.st0{fill-rule:evenodd;clip-rule:evenodd;}
</style>
<path d="M790.3,784.5c-2.8,5.5-6.1,10.7-10,15.4c-6.1,3.6-15.1,5.9-26.4,6.8c-34.4,2.7-79.2-9.3-99.8-26.7l0,0
	c-3.7-3.1-6.4-6.2-8.1-9.3c-1.5-5.4-2.5-11-2.9-16.9c0,0.1,0.3,0.4,0.4,0.6c0.2,0.2,0.3,0.4,0.5,0.6c0.3,0.4,0.7,0.8,1,1.2
	c0.7,0.8,1.5,1.6,2.2,2.4c1.6,1.6,3.3,3.1,5,4.4c0.7,0.5,1.4,1,2.1,1.6c0.7,0.5,1.4,0.9,2,1.4c1.4,1,2.8,1.9,4.3,2.8
	c1.5,0.9,3.1,1.8,4.7,2.7c1.7,0.9,3.3,1.7,5,2.6c1.8,0.8,3.5,1.7,5.3,2.4c1.9,0.8,3.7,1.6,5.6,2.3c2,0.8,3.9,1.5,5.9,2.2
	s4.1,1.4,6.2,2c2.1,0.7,4.3,1.3,6.4,1.8c0.2,0.1,0.4,0.1,0.6,0.1c16.9,4.5,34.4,6.9,50.3,6.9c3.9,0,7.6-0.1,11.3-0.4
	C773.8,790.5,783.4,788.1,790.3,784.5z M655.9,705.2c-3.8,5.9-6.9,12.4-9.1,19.2c1.8,3.7,5,7.5,9.5,11.3
	c22.8,19.2,72.3,32.5,110.5,29.5c11.9-0.9,21.8-3.4,28.5-7.1c1.1-0.6,2.1-1.2,3-1.9c0.2-2.4,0.3-4.9,0.3-7.4c0-4.8-0.4-9.5-1.2-14
	c-6.4,4.6-16.7,7.7-29.9,8.7c-3.3,0.3-6.8,0.4-10.3,0.4c-14.6,0-30.6-2.2-46.2-6.3c-18.8-5-34.7-12.4-45-20.7l0,0l-1-0.8l0,0
	l-0.7-0.6l0,0C660.4,712,657.6,708.6,655.9,705.2z M743.7,809.7c-14.4,0-30.1-2.1-45.4-6.2c-4.2-1.1-8.5-2.4-12.6-3.9
	c-3.9-1.4-7.7-2.9-11.4-4.5c-3.4-1.5-6.8-3.2-10.1-5.1c-1.8-1-3.5-2.1-5.3-3.3c-2.4-1.6-4.6-3.3-6.8-5.2c-1.2-1.1-2.4-2.2-3.4-3.4
	c3.5,9,8.6,17.1,14.9,24.1c23.1,12.6,58.6,20.4,87.1,18.2c1.5-0.1,3-0.3,4.5-0.4c7.8-3.9,14.9-9.1,21-15.3c-5.9,2.4-13.4,4-22.2,4.7
	C750.5,809.6,747.1,809.7,743.7,809.7z M755.6,768.6c-16,0-33.5-2.4-50.5-6.9c-20.4-5.5-37.8-13.4-49.1-22.5l0,0l-1.2-1l-0.6-0.5
	l0,0c-3.7-3.2-6.5-6.4-8.4-9.5c-1.7,6.6-2.7,13.5-2.7,20.7c0,0.1,0,0.2,0,0.2c1.9,3.3,4.8,6.7,8.8,10l0,0
	c22.7,19.2,72.2,32.4,110.2,29.5c10.5-0.8,19.1-2.7,25.7-5.7c1.6-0.7,3.1-1.5,4.4-2.4c2.8-6.5,4.7-13.4,5.7-20.6
	c-7,4.4-17.6,7.3-31.1,8.3C763.2,768.5,759.4,768.6,755.6,768.6z M682.1,694.5L682.1,694.5c16.9,14.3,53.6,24.1,81.9,21.9
	c11.1-0.9,19.6-3.5,24.2-7.4c-13.5-23.6-38.6-39.4-67.3-39.4c-17.3,0-33.3,5.8-46.3,15.5C675.8,688.2,678.3,691.4,682.1,694.5z
	 M740.3,823.5c-14.4,0-30.1-2.1-45.4-6.2c-9.3-2.5-17.9-5.6-25.5-9.1c13.7,12.4,31.8,19.9,51.6,19.9c9.4,0,18.3-1.7,26.6-4.8
	C745.2,823.4,742.7,823.5,740.3,823.5z M666.8,713.7L666.8,713.7c20.7,17.5,65.8,29.6,100.5,26.9c8.5-0.7,15.7-2.1,21.4-4.4
	c3.3-1.3,6-2.8,8.1-4.5c-1.5-7.1-4-13.8-7.3-20.1c-1.6,1.3-3.5,2.4-5.8,3.4c-5.1,2.2-11.7,3.7-19.5,4.3c-2.7,0.2-5.5,0.3-8.4,0.3
	c-27.1,0-58.9-9.3-75-22.2v0.1L680,697l0,0l-0.9-0.9V696c-3.4-3-5.7-6-7-9c-5.5,4.5-10.4,9.7-14.5,15.5
	C659.3,706.1,662.3,709.9,666.8,713.7z"/>
<path d="M719.4,625.4c0,0-5.9-21.2-9.6-22.8c-3.4-1.5-13.2,5.3-27.2,5.4c-9.5,0-29.9-8.3-35.5-9.6c-5.7-1.2-20.7-3.9-23.6-8.3
	c-2.9-4.4-5.7-5-5.7-8.1s0.7-6.2,0.7-6.2s-0.9-15.4,2.9-26.4c3.8-11,18.1-49.3,18.3-53.3s0.4-6.8,1.3-9.7c0.8-2.6,5.2-8.2,6.9-10
	c2.6-2.7,12.2-8.4,16.3-9.4s10.6-6.9,11.7-6.9h0.2c0.9,0,1.8-0.3,2.6-1c0.7-0.6,1.9-1.2,3.6-0.5c1.5,0.6,4,4.2,7.2,7.4
	c3.2,3.3,7.2,6.4,7.2,7.3c0,1.9-0.9,3.3-0.9,3.3s3.8,3.1,2,6.4c-1.7,3-4.6,0.8-6.9,1c-2.8,0.3-4.1,3.2-7.1,4.1
	c-1.5,0.4-3.2,0.5-4.5,1.4c-0.6,0.4-1.1,0.9-1.8,1.1c-1.5,0.5-3-0.7-4.6-1.1c-2.1-0.6-4.3,0.3-6.1,1.6c-1.8,1.3-3.2,2.9-5,4.1
	c-0.7,0.5-1.5,0.9-2,1.5c-0.4,0.5-0.7,1.2-0.9,1.8c-3.3,8.8-4.3,18.6-3.2,27.9l2,16.5l1.3,12.8c0.2,1.5,1.4,2.8,2.9,3s3,0.2,4.4,0.1
	c1.1-0.1,2.1-0.3,3.2-0.5l3.6-0.9c2.1-0.5,4.2-0.7,6.4-0.6l6.1,0.3c3.6,0.2,7.1-0.5,10.4-2c5.3-2.4,13.8-5.8,19.7-5.4
	c9.1,0.5,8.6,1.4,8.6,1.4v74.4L719.4,625.4z"/>
<path d="M61.4,450.4c-1.5,1.3-2.9,2.9-3.5,4.8c-0.4,1.4-0.4,2.8-0.4,4.3c0,26.9,0,53.9,0,80.8c16.1-3.9,29.8-16.7,34.8-32.5
	c1.1-3.6,2.1-7.6,5.2-9.6c2.2-1.4,5.1-1.4,7.7-1.1c7.8,1,15.2,4.6,23.1,4.6c9.5,0,18.1-5.4,27.5-7c6-1,12.2-0.5,18.3-1.2
	c5.7-0.7,14.9-3.3,15.7-9.9c1-8-2-17-4.4-24.5c-6.2-19.4-14.5-38-24.8-55.5c-3-5-6.1-10-10.5-13.9c-3.3-2.9-7.3-5-11.2-7
	c-5.5-2.9-11-5.8-16.5-8.8c-1.8-0.9-3.6-1.9-5.6-1.8c-3,0.1-5.4,2.6-7.4,4.8c-1.9,2.2-3.9,4.4-5.8,6.6c-2,2.3-4,5.9-1.8,7.9
	c0.9,0.8,2.2,1,3.4,1.6s2,2,1.3,3c-0.5,0.6-1.3,0.7-2,1c-2.5,0.9-3.4,4.5-1.8,6.5c1.5,1.8,4.1,2,6.3,1.5s4.3-1.7,6.5-2.2
	c7.1-1.8,15.3,2.5,21.5-1.3c11.9,18.3,16.9,41,13.6,62.6c-5.3,0.1-9.4-4.2-14-6.8c-5.4-3-12.1-3.7-18-1.9c-1.4,0.4-2.8,1-4.2,0.9
	c-2-0.1-3.6-1.5-5.2-2.7c-6.8-5.3-15-9.2-23.6-10.1c-1.5-0.2-3.1-0.2-4.7-0.2C73.8,443.3,66.7,445.7,61.4,450.4z"/>
<path class="st0" d="M576.6,575.5c0.4-0.4,23.3-42.4,6.9-50.3c-9.4-4.6-35.6-8.4-35.6-8.4s12.6-63,12.3-63.8
	c1.3-0.6,9.6-3.2,12.6-4.2c1-0.3,1.4-1.1,1-1.9s-1.7-2.6-1.9-2.8c-0.1-0.2-0.5-0.4-0.6-0.4c-0.3-0.1-12.6,3.3-14.4,3.7
	c-1.4-0.1-19-0.2-19.2-0.2c-1.3,0-1.9,3.8-1.9,3.9c-0.1,0.8,1.5,0.8,2,0.9c4.6,0.3,10.8,0.8,15.4,0.9c0.2,0.1-12.1,49.9-15.7,63.3
	c-29.4,0.3-39.1,27.6-45.5,35.6c-0.4-1-17.5-30.5-19.5-36.4c-3.1-8.8-4.2-17.8-3-27.1c0.5-3.5,1.3-6.9,2.1-10.4l0,0
	c0.1-1.1,9.6-39.3,10-41.6c0.5-2.6,0.6-4.1,2.3-4.6c1.1,0.4,3.6,1.3,4.8,1.7c2.1,0.7,3.5-2.6,1.5-3.6c-1.5-0.8-9.1-5.9-11.4-7.5
	c-1.2-1-15.1-22.2-19.4-28.8c-0.8-1.2-2.2-1.7-3.5-1.4l-1.2,0.3c-2.2,0.5-3.3,3-2.2,4.9c5.2,8.9,17.4,29.8,18.5,30.8
	c3.7,3.4,0.7,13.7,0.3,15.4c-1.7,7.2-3.5,14.5-5.3,21.7c-0.2,0.2-2.7,10.8-3.8,15c-3.2,12.3-2.7,24.5,1.3,36.5
	c1.8,5.5,19.8,56.5,19.8,56.5l-9.9,13.8h9.3l5.8-6.9c0,0,67.5,0.2,82.2,0.1c0.5,0.4,6.9,6.9,6.9,6.9h8.9
	C586.8,587.1,576.2,575.9,576.6,575.5z"/>
<path d="M320.4,646c0,0,0.1-0.4,0.1-0.5c0.7-1.8,1.3-3.6,2-5.4c0.6-1.5,1.1-3,1.7-4.5c0.6-1.8,1.3-3.5,1.9-5.3
	c0.5-1.4,0.9-2.9,1.8-4.2c0.6-0.9,1.2-1.7,2.3-2c1.1-0.3,2.2-0.6,3.4-0.7c2.7-0.3,5.3-0.4,8-0.6c0.6,0,0.6,0,0.6-0.6
	c-0.1-5.7-0.2-11.5-0.4-17.2c0-0.3,0-0.7,0.1-1c0.4-1.2,0.7-2.4,1.2-3.5c0.8-1.8,1.7-3.5,2.7-5.1c1.7-3,3.5-5.9,5.4-8.8
	c1.5-2.3,3-4.5,4.5-6.7c1.4-2.1,2.9-4.2,4.4-6.3c1.6-2.3,3.3-4.5,4.7-6.9c1.7-3,3.5-5.9,5.2-8.8c1.4-2.4,2.9-4.8,4.3-7.3
	c0.4-0.7,0.8-1.4,1-2.1c0.4-2,0-3.9-1-5.7c-0.2-0.3-0.4-0.4-0.7-0.5c-0.7-0.2-1.4-0.3-2-0.7c-1.1-0.6-2.2-1.4-3.2-2.1
	c-1.7-1.2-3.5-2.4-5.2-3.5c-2.1-1.3-4.3-2.6-6.5-3.8c-1.9-1.1-3.9-2.1-5.9-3.1c-1-0.5-1.9-1.2-2-2.5c0-0.3-0.3-0.3-0.5-0.3
	c-2.5-0.1-5-0.2-7.4-0.3c-0.4,0-0.9-0.2-1.2-0.4c-1.3-0.9-2.6-1.9-3.9-2.9c-0.2-0.1-0.3-0.3-0.3-0.5c-0.1-0.7-0.3-1.5-0.3-2.2
	c-0.1-3.2-0.2-6.5-0.3-9.7c0-0.2,0.1-0.5,0.2-0.7c0.8-1.6,1.8-2.9,3-4.2c0.2-0.3,0.4-0.2,0.7-0.1c1.5,1,3,1.9,4.4,2.9
	c2.9,1.9,5.9,3.9,8.8,5.8c1.3,0.9,2.7,1.7,4,2.6c1.9,1.2,3.8,2.5,5.7,3.7c0.3,0.2,0.3,0.3,0.1,0.6c-0.7,0.9-1.4,1.9-2,2.8
	c-0.2,0.2-0.2,0.3,0.1,0.5c1,0.7,1.9,1.4,2.9,2.1c2.3,1.8,4.7,3.4,7.3,4.8c1.8,1,3.6,1.9,5.4,3c1.6,0.9,2.7,2.2,2.3,4.2
	c0,0.1,0.1,0.3,0.2,0.4c1.3,1,2.4,2.2,3.1,3.7c0.8,2,1.2,4,0.6,6c-0.6,2.2-1.6,4.3-2.7,6.2c-1.8,3.2-3.6,6.4-5.6,9.5
	c-2,3.3-4.2,6.5-6.3,9.8c-2.1,3.3-4.2,6.6-6.4,9.9c-2,3.1-4,6.2-6,9.4c-1.4,2.1-2.7,4.3-4.1,6.4c-0.6,1-1.3,1.9-1.5,3.1
	c-0.3,2-0.7,4-0.7,6c-0.1,4.4,0,8.8-0.1,13.1c0,0.4,0.1,0.5,0.5,0.5c2.8,0,5.5,0.1,8.2,0.8c1.6,0.4,3.2,0.9,4.3,2.4
	c0.4,0.5,0.7,1,1.1,1.5c0.2-0.6,0.2-0.5,0.6-0.5c0,0,105.9-0.1,136.1-0.1c0.8,0,1.5,0,2.2,0c0.1,0,0.3,0,0.4,0.1
	c0.9,0.7,1.8,1.4,2.1,2.6c0.2,0.7,0.4,1.4,0.6,2.1c0.4,2.2,0.1,4.3-1,6.3c-0.1,0.2-0.1,0.5,0,0.6c0.3,0.8,0.7,1.7,1.1,2.6
	c0.1,0.3,0.2,1.2,0.4,1.2c-1.4,0-3.6,0-4.6,0c0,0,0,0.3,0,0.5c0,1,0.3,2.1,0.3,3.1c0,0.2,0.1,0.4-0.2,0.4c-2.7,0-5.2,0-7.9,0
	c-0.3,0-0.3-0.1-0.3-0.4c0-0.9,0.1-1.8,0.1-2.8c0-0.3,0-0.8,0-0.8s-0.6,0-0.8,0c-15.3,0-30.5,0-45.8,0c-5.8,0-11.7-0.1-17.5-0.1
	c-0.6,0-0.6,0-0.6,0.6c0,1,0,2,0,3c0,0.3-0.1,0.5-0.5,0.5c-2.6,0-5.1,0-7.7,0c-0.3,0-0.5-0.1-0.5-0.4c0-1,0-2,0-3
	c0-0.6,0-0.5-0.6-0.5c-16.7,0-33.4,0-50.2,0c-0.2,0-0.3,0-0.5,0c0.4,1.4,1,2,1.3,4C352.6,646,336.6,646,320.4,646z"/>
<path d="M261.4,477.2c0.5,0,1.1,0.1,1.6,0.2l-3.3-2.1l16.9-29.3h-2.7c-1.8,4-5.5,6.1-9.7,6.1c-6,0-10.9-4.8-10.9-10.9
	c0-6,4.9-10.7,10.9-10.7c4.8,0,8.8,2.5,10.3,7.5h7.1l16.3-28.2c-5.5-0.6-9.7-5.3-9.7-11c0-6,4.9-11,10.9-11
	c5.8,0,10.6,4.6,10.9,10.3l127.2,75.5l-5.9,10.1l-1.8-1c0.3,0.8,0.5,1.7,0.5,2.7c0,4.1-3.3,7.4-7.4,7.4s-7.4-3.3-7.4-7.4
	c0-3.7,2.7-6.8,6.3-7.3L309.4,413l-39.6,68.3l-2.9-1.7c1.2,1.3,1.9,3,1.9,4.9c0,4.1-3.3,7.4-7.4,7.4s-7.4-3.3-7.4-7.4
	C254,480.5,257.3,477.2,261.4,477.2z"/>
<path d="M923,389.4l3.2-1.9c0-2.4-6.3-6.7-8.4-6l-0.4,2.8c-4.9-3.3-10.4-5.5-16.4-6.2v-3.3c2-0.5,1.9-1.8,1.9-3.3
	c0-0.2,0-0.3-0.1-0.5c2.5-0.9,4.2-2.7,4.2-4.8v-0.5c0-3.1-3.8-5.9-8.5-5.9h-4.1c-4.6,0-8.4,2.8-8.4,5.9v0.5c0,1.9,1.5,3.6,3.7,4.5
	c0,0.2,0,0.4,0,0.7c0,1.5,1.3,2.7,2.3,3.3v3.3c-20,2.1-32.9,17.9-32.8,37c0,0.2,0,0.3,0,0.5c0.1,20.4,16.8,36.9,37.3,36.8
	c20.4-0.1,36.9-16.8,36.8-37.3c0-0.2,0-0.3,0-0.5C933.2,404.8,929.3,396,923,389.4z M890.1,369.4c-1.6-0.7-3.1-1.8-3.1-3v-0.5
	c0-2.1,3.8-4.9,7.4-4.9h4.1c3.6,0,7.5,2.8,7.5,4.9v0.5c0,1.3-1.7,2.5-3.6,3.2c-0.6-0.9-2.1-1.5-3.3-1.5h-5.8
	C892.2,368,890.7,368.6,890.1,369.4z M928,415.1c0,17.1-13.9,30.9-31,30.9s-31-13.8-31-30.9l0,0c0-17.1,13.9-30.9,31-30.9
	S928,398.1,928,415.1L928,415.1z M909.4,391.7l0.2,0.1c0.2,0.1,0.2,0.4,0,0.7l0,0l-1,1.7c-0.2,0.3-0.5,0.4-0.7,0.3l0,0l-0.2-0.1
	c-0.2-0.1-0.2-0.4-0.1-0.7l0,0l1-1.7C908.9,391.8,909.2,391.6,909.4,391.7L909.4,391.7 M918.9,401.5l0.1,0.2c0.1,0.2,0,0.5-0.3,0.7
	l0,0l-1.7,1c-0.3,0.2-0.6,0.1-0.7-0.1l0,0l-0.1-0.2c-0.1-0.2,0-0.5,0.3-0.7l0,0l1.7-1C918.4,401.3,918.8,401.3,918.9,401.5
	L918.9,401.5 M909.4,437.8l0.2-0.1c0.2-0.1,0.2-0.4,0-0.7l0,0l-1-1.7c-0.2-0.3-0.5-0.4-0.7-0.3l0,0l-0.2,0.1
	c-0.2,0.1-0.2,0.4-0.1,0.7l0,0l1,1.7C908.9,437.8,909.2,438,909.4,437.8L909.4,437.8 M918.9,428l0.1-0.2c0.1-0.2,0-0.5-0.3-0.7l0,0
	l-1.7-1c-0.3-0.2-0.6-0.1-0.7,0.1l0,0l-0.1,0.2c-0.1,0.2,0,0.5,0.3,0.7l0,0l1.7,1C918.4,428.3,918.8,428.2,918.9,428L918.9,428
	 M883.1,437.8l-0.2-0.1c-0.2-0.1-0.2-0.4-0.1-0.7l0,0l1-1.7c0.2-0.3,0.5-0.4,0.7-0.3l0,0l0.2,0.1c0.2,0.1,0.2,0.4,0.1,0.7l0,0
	l-1,1.7C883.5,437.8,883.2,438,883.1,437.8L883.1,437.8 M873.5,428l-0.1-0.2c-0.1-0.2,0-0.5,0.3-0.7l0,0l1.7-1
	c0.3-0.2,0.6-0.1,0.7,0.1l0,0l0.1,0.2c0.1,0.2,0,0.5-0.3,0.7l0,0l-1.7,1C874,428.3,873.7,428.2,873.5,428L873.5,428 M883.1,391.9
	l-0.2,0.1c-0.2,0.1-0.2,0.4-0.1,0.7l0,0l1,1.7c0.2,0.3,0.5,0.4,0.7,0.3l0,0l0.2-0.1c0.2-0.1,0.2-0.4,0.1-0.7l0,0l-1-1.7
	C883.5,391.9,883.2,391.8,883.1,391.9L883.1,391.9 M873.5,401.7l-0.1,0.2c-0.1,0.2,0,0.5,0.3,0.7l0,0l1.7,1c0.3,0.2,0.6,0.1,0.7-0.1
	l0,0l0.1-0.2c0.1-0.2,0-0.5-0.3-0.7l0,0l-1.7-1C874,401.5,873.7,401.5,873.5,401.7L873.5,401.7 M899,393.2c0,1-0.8,1.8-1.8,1.8h-1.4
	c-1,0-1.8-0.8-1.8-1.8v-3.4c0-1,0.8-1.8,1.8-1.8h1.4c1,0,1.8,0.8,1.8,1.8V393.2z M899,441.2c0,1-0.8,1.8-1.8,1.8h-1.4
	c-1,0-1.8-0.8-1.8-1.8v-3.4c0-1,0.8-1.8,1.8-1.8h1.4c1,0,1.8,0.8,1.8,1.8V441.2z M875,416.2c0,1-0.8,1.8-1.8,1.8h-3.4
	c-1,0-1.8-0.8-1.8-1.8v-1.4c0-1,0.8-1.8,1.8-1.8h3.4c1,0,1.8,0.8,1.8,1.8V416.2z M924,416.2c0,1-0.8,1.8-1.8,1.8h-3.4
	c-1,0-1.8-0.8-1.8-1.8v-1.4c0-1,0.8-1.8,1.8-1.8h3.4c1,0,1.8,0.8,1.8,1.8V416.2z M897.9,415h-3.4l1.7-17.3L897.9,415z"/>
<path d="M362,350.5c-0.4-1.9-0.9-3.8-1.3-5.7c-0.7-3.2-2.7-5.7-4.8-8.1c-2.3-2.6-4.6-5.1-6.9-7.6c-0.8-0.9-1.7-1.6-2.6-2.4
	c-0.3-0.3-0.7-0.4-1.1-0.6c-0.2-0.1-0.5,0-0.7,0.1c-0.9,0.5-1.7,1.1-2.5,1.6c-1.1,0.8-2.2,1.6-3.3,2.5c-2.1,1.8-4.6,2.4-7.3,2.5
	c-3.7,0.1-7.4,0.1-11.2,0.1c-1.9,0-3.8-0.4-5.7-0.8c-0.8-0.2-1.6-0.3-2.4-0.2c-1.9,0.2-3.7,0.8-5.5,1.5c-1.9,0.7-3.8,1.4-5.7,2.1
	c-0.8,0.3-0.9,0.3-1.2-0.6c-0.6-2.2-1.1-4.5-1.7-6.7c-0.6-2.5-1.2-5-1.9-7.5c-0.2-0.9-0.4-1.7,0.2-2.5c0.4-0.5,0.3-1.1,0.1-1.7
	c-0.9-2.5-2.2-4.9-3.5-7.2c-0.3-0.5-0.3-0.9,0-1.5c1.6-2.8,1.9-5.8,1.3-8.9c-0.1-0.7,0-1.1,0.5-1.6c1.2-1.3,2.1-2.8,2-4.7
	c-0.1-2.3,0.6-4.2,1.9-6.1c2.3-3.3,4.6-6.7,6.8-10.2c2.4-3.8,4-8,4.9-12.4c0.3-1.2,0.3-2.5,0.3-3.8c0-0.8-0.3-1.7-1-2.2
	c-1-0.8-2-1.6-3-2.4c-2.6-1.8-5.1-3.6-7.7-5.5c-1.8-1.3-3.7-2.4-5.7-3.4s-3.9-2.2-5.7-3.5c-1.1-0.8-2.4-1.2-3.6-1.7
	c-2.1-0.8-4.3-1.6-6.4-2.6c-1.1-0.5-2.2-1.2-3.2-1.9c-2.1-1.6-2.2-4.2-1.3-6.5c0.7-1.7,1.6-3.3,1.9-5.1c0.6-3.5,0.6-7-0.6-10.3
	c-0.9-2.5-2.8-3.9-5.2-4.5c-1.2-0.3-2.5-0.4-3.8-0.4c-3.2-0.1-6.3,0.1-9.4,0.8s-5.3,3-5.7,6.1c-0.1,0.4-0.1,0.8,0,1.2
	c0.1,0.5,0.3,1,0.8,1.2c1.1,0.5,1.5,1.3,1.3,2.4c-0.1,0.6-0.1,1.3-0.2,1.9c-0.1,0.6,0,1.2,0.3,1.8c0.2,0.3,0.1,0.6-0.1,0.9
	c-0.6,0.7-1.1,1.5-1.7,2.2c-0.7,1-0.6,1.6,0.5,2.2c0.1,0,0.1,0.1,0.2,0.1c1,0.4,1.3,1.1,1.1,2.2c-0.1,0.3,0.2,0.7,0.5,1.1
	c-0.3,0.9,0.3,1.5,0.9,2c0.3,0.3,0.4,0.5,0.4,0.9c0,0.1,0,0.1,0,0.2c0,1.8,0.4,2.2,2.2,2.2c1.2,0,2.4,0.1,3.6,0.1
	c0.1,0,0.3,0,0.3,0.1c0.4,0.6,0.8,1.1,1.1,1.7c0,0.1-0.2,0.4-0.4,0.5c-1.1,0.8-2.3,1.5-3.5,2.3c-2.3,1.6-3.3,4-3.1,6.9
	c0.1,1.5,0.1,3.1-0.1,4.6c-0.3,2.1,0.1,4.3,1.2,6c0.4,0.6,0.6,1.3,0.5,2c-0.1,1.6,0.2,3.2,0.7,4.7c0.6,1.6,0.2,2.9-1,4
	c-1.5,1.5-3.3,2.4-5.4,2.9c-0.9,0.2-1.7,0.1-2.7-0.1c-2.1-0.4-3.6-0.5-5.6,0s-3.1,1.5-3.4,3.5c-0.4,2.2-0.3,3.8,0.7,5.8
	c0.1,0.1,0.2,0.3,0.4,0.4c0.4,0.3,0.9,0.5,1.4,0.4c0.3-0.1,0.6-0.1,0.7-0.2c1.7-0.8,2-1.7,4.6-3.1c3.4-1.9,6.3-0.1,10.1-0.5
	c1.3-0.2,3.7-1.2,4.8-2.5c0.9,1.5,2,4.8,2.8,6.2c1.9,3.5,3.1,7.3,3.7,11.3c0.3,1.9,0.2,3.7-0.2,5.6c-0.4,1.9-1.1,3.6-2,5.2
	c-2.4,4.5-4.8,8.9-7.3,13.3c-2,3.5-4.1,7-6.3,10.4c-0.9,1.4-2.1,2.7-3.1,4c-0.2,0.3-0.4,0.6-0.4,1c-0.1,1-0.1,2,0,3.1
	c0,0.3,0.2,0.7,0.4,1c0.8,0.9,1.2,2.1,1.2,3.3c0,2.4,0,4.9-0.1,7.3c-0.1,2.9-0.2,5.7-0.4,8.6c-0.2,3.7-0.4,7.3-0.7,11
	c-0.1,1.3-0.4,2.6-0.7,3.9c-0.5,2.1-1.7,3.8-3.3,5.3c-2.5,2.2-5.3,4-8.3,5.4c-3.1,1.4-6.4,1.7-9.8,1.7c-0.5,0-1,0-1.5,0.2
	c-0.9,0.4-1,1-0.4,1.7l0,0c1.3,1.5,3.1,2.5,5,2.8c5.3,0.9,16.8,2.4,23.4,0.2c3.3-1.1,3.4-6.2,2.6-8.9c-1.2-4.1-0.1-9.5,1.2-13.5
	c0.8-2.3,1.7-4.5,2.5-6.8s1.6-4.6,2.3-6.9c1-3.8,1.1-7.7,1-11.5c0-1.3,0-2.6,0.2-3.8c0.2-1.4,0.9-2.5,1.8-3.5
	c1.3-1.5,2.9-2.6,4.4-3.8c1.9-1.6,3.8-3.1,5.6-4.7c0.8-0.6,1.6-1.3,2.4-1.9c0.3,0.6,0.7,1.2,1,1.8c3.3,5.7,6.6,11.5,9.9,17.2
	c0.8,1.3,1.7,2.5,2.9,3.5c0.8,0.6,1.6,0.9,2.6,1c2.2,0.1,4.4-0.5,6.5-1.1c3.3-0.9,6.5-1.9,9.8-2.8c5.8-1.6,11.7-2.9,17.7-3.8
	c2.4-0.3,4.8-0.5,7.3-0.6c2.6-0.2,5,0.5,7.2,1.7c1,0.6,2,1.1,3,1.6c0.9,0.4,1.8,0.8,2.7,1.1c0.8,0.3,1.6,0.6,2.4,0.8
	c1.9,0.5,3.5,1.6,5,2.9c1,0.8,2,1.7,2.9,2.6c0.5,0.4,0.9,0.9,1.5,1.3c0.2,0.1,0.5,0.2,0.7,0.1C361.7,352.6,362.2,351.6,362,350.5z
	 M290.1,284c0,0-2.2-4-2.2-9.3c0-8.2,2.2-17.2,2.2-17.2s9.5,1.5,9.9,5.3c0.4,3.7-3.3,15.2-5,17.2C293.4,282,290.1,284,290.1,284z"/>
<path d="M211.7,642v-0.4c1.3-4.1-0.6-8.4-0.6-8.4c0-3,2.4-13.2,2.4-13.2c2.1-6.6-0.6-25.7-0.6-25.7l7-7.3l7.2,9.7
	c1.5,6.4,8.8,5.4,8.8,5.4c3.8,1.7,15.3,4.9,15.3,4.9c4.7-0.1,18.3,6.7,18.3,6.7c1.2,2.2,3.9,3,3.9,3c5.5,0.1,8,5.2,8,5.2
	c2.1,3.6,3.6,2.5,3.6,2.5c1.2-2,1.3-4.2,1-6.2c-0.4-2.6-1.6-5-3.3-6.9l-1.7-1.9c0-5.7-3.9-8.4-5.2-8.2c-1,0.1-7.9,3.7-7.9,3.7
	l-11.3-5.9c-5.2-5.1-13.7-6.2-13.7-6.2c-3.2-0.1-3.9-0.5-4-0.8c-0.1-0.2-0.2-0.4-0.4-0.6c-4-4.9-6.7-19-6.7-19
	c-0.9-2.7-0.2-2.5-0.2-2.5l4.4-0.3v-3.2c2.5-12.4-6.4-23.7-6.4-23.7c9.5-3.7,18.6-9.8,18.6-9.8c3.9-2.4,3.4-4.2,3-4.9
	c-0.2-0.3-0.3-0.6-0.5-0.9c-1.8-3.7-10.5-9.2-11.8-10.2c-1.8-1.5-4-3.4-5.4-4.7c-1-0.9-2.1-1.6-3.3-2.1c0,0-0.7-0.3-1.9-0.8
	c1.1,0,1.9-0.3,1.9-0.3c-1.9-1.7-3.3-4.3-2.3-6.9c0.5-1.4,1.7-2.5,2.5-3.8c1.2-1.7,1.8-3.8,2-5.9c0.2-2,0-4.1-1-5.9
	c-2.4-4.8-8.6-5.1-12.7-2.4c0,0-1.7-2.2-2.5-2.6c-1-0.4-8.9-0.9-8.9-0.9c-5.9,0.9-4.5,6.1-4.5,6.1c-1.7,0.9-1.3,4.4-1,6
	c0.1,0.7,0,1.3-0.3,1.9c-0.6,1.3-1.5,2.4-1,2.5c0.2,0.1,0.5,0.2,0.8,0.2c0.5,0.2,0.8,0.6,0.8,1.1c0,4,0.7,4.6,1.1,4.8
	c0.6,0.2,1.9,0.2,2.9,0.1c0.9-0.1,1.7,0.5,1.9,1.4c0.6,2.3-2.5,3.1-2.5,3.1c-9.3,1.4-8.7,10.3-8.7,10.3c-2.9-0.8-6.5,3.7-6.5,3.7
	l1.8,18.1c3.8,6,6.1,1.6,6.1,1.6l4.7-10.6c4.5,7.7,5.3,19.1,5.3,19.1c0.1,8.7,4.6,20.4,4.6,20.4l-9.2,17.4c-4.8,6.1,0,10.7,0,10.7
	c3.4,21,0.3,32.7,0.3,32.7l-0.6,0.2c-0.7,0.2-1.3,0.7-1.8,1.3c-2.4,3.1-7.5,3.2-7.5,3.2c-5-0.1-3.7,3.1-3.7,3.1c1,1.3,2,2.1,3,3.1
	h-20.4c-3.2-12-15.4-16.1-29.9-16.1c-2.7,0-5.4,0-7.9,0.4l18.7-63.2l2.7-9l2.7,1.8c0.3,0.2,0.7,0.3,1,0.3l22.2,1.3h0.1
	c1.1,0,1.9-0.8,2-1.9c0.1-1.1-0.8-2.1-1.9-2.1l-21.6-1.2l-27.5-18.8c-0.9-0.6-2.2-0.4-2.8,0.5s-0.4,2.2,0.5,2.8l16,11l-4.4,14.4
	l-26.1,85.3l0.1,0.1l-1.4,3.5h9.7v5h27v-5h105v5h14v-5h24v-9h-83.4V642z M231.8,521.4L231.8,521.4l10.8,6c0,0-6.6,8.5-13.6,10.1
	C229,537.5,229.1,524.6,231.8,521.4z M222.7,486.7c0.9,0.3,1.5,0.9,1.7,1.8c0.2,1-0.2,2-0.6,2.8c-0.8,1.4-1.7,2.6-2.8,3.8
	c0.6-1.4,0.7-2.9,0.6-4.4c-0.1-1.6-0.5-3.1-1.1-4.6C220.7,486.6,222.3,486.6,222.7,486.7z M216.5,500.8c0.1-1.4,1-1.9,2.1-2.6
	c0.2-0.1,0.3-0.2,0.5-0.4c0.2,3.9,1.1,6.4,2.4,8.1c-2-0.9-3.6-1.6-3.6-1.6C217.1,503.3,216.4,502.1,216.5,500.8z"/>
<path d="M473.7,363.1c-0.4-2.8-1.7-5.5-3.7-7.6l-1.8-2c0-6.3-4.3-9.2-5.7-9c-1,0.2-8.7,4-8.7,4l-12.4-6.5c-5.7-5.6-15-6.9-15-6.9
	c-3.6-0.1-4.3-0.6-4.4-0.9c-0.1-0.2-0.2-0.4-0.4-0.6c-4.5-5.3-7.4-20.9-7.4-20.9c-1-2.9-0.2-2.7-0.2-2.7l4.8-0.3v-3.6
	c2.7-13.6-7-26-7-26c10.4-4,20.4-10.8,20.4-10.8c4.3-2.6,3.7-4.6,3.3-5.4c-0.2-0.3-0.3-0.5-0.4-0.8c-1.8-4-11.6-10.3-13.1-11.5
	c-2-1.7-4.4-3.8-5.9-5.1c-1.1-1-2.3-1.8-3.6-2.3c0,0-0.8-0.4-2-0.9c1.2,0,2.1-0.3,2.1-0.3c-2.1-1.9-3.6-4.7-2.5-7.5
	c0.6-1.6,1.8-2.8,2.8-4.2c1.3-1.9,2-4.2,2.2-6.4s-0.1-4.5-1.1-6.5c-2.6-5.2-9.5-5.6-14-2.6l-0.3-0.3c-1.6-1.6-3.8-2.6-6-2.9
	c-1.9-0.2-4.1-0.4-5.2-0.5s-2.1,0.1-3.1,0.5c-4.1,1.8-2.9,6.1-2.9,6.1c-1.9,1-1.5,4.8-1.1,6.6c0.1,0.7,0,1.5-0.3,2.1
	c-0.7,1.4-1.7,2.6-1.1,2.8c0.2,0.1,0.5,0.2,0.8,0.3c0.5,0.2,0.9,0.7,0.9,1.3c0,4.4,0.8,5.1,1.2,5.2c0.6,0.3,2.1,0.2,3.1,0.1
	c1-0.1,1.9,0.6,2.2,1.5c0.6,2.6-2.8,3.4-2.8,3.4c-10.2,1.6-9.5,11.4-9.5,11.4c-0.9-0.2-1.8,0-2.7,0.4c-2.8,1.3-4.4,4.3-4.1,7.3
	l1.7,16.2c4.2,6.5,6.7,1.7,6.7,1.7l5.2-11.6c4.9,8.4,5.8,20.9,5.8,20.9c0.1,9.6,5.1,22.4,5.1,22.4l-10.1,19.1
	c-5.3,6.7,0,11.8,0,11.8c3.7,23,0.3,35.8,0.3,35.8l-0.6,0.2c-0.8,0.3-1.4,0.8-1.9,1.4c-2.7,3.4-8.3,3.5-8.3,3.5
	c-5.5-0.2-4.1,3-4.1,3c4.5,6,10,3.7,10,3.7c2.8-1,4.7,1,4.7,1c6.7,1.7,8.8-1.7,8.8-1.7c1.4-4.5-0.7-9-0.7-9c0-3.3,2.7-14.4,2.7-14.4
	c2.3-7.3-0.6-28.1-0.6-28.1l7.7-8l8,10.7c1.7,7,9.6,5.9,9.6,5.9c4.2,1.9,16.7,5.4,16.7,5.4c5.2-0.1,20.1,7.3,20.1,7.3
	c1.3,2.4,4.3,3.2,4.3,3.2c6,0.1,8.7,5.7,8.7,5.7c2.3,3.9,3.9,2.7,3.9,2.7C474,367.7,474.1,365.2,473.7,363.1z M404.3,218.9
	c1,0.3,1.7,1,1.9,2c0.2,1.1-0.2,2.2-0.7,3.1c-0.9,1.5-1.9,2.9-3,4.2c0.6-1.5,0.8-3.2,0.7-4.8c-0.1-1.7-0.6-3.4-1.2-5
	C402.1,218.8,403.8,218.7,404.3,218.9z M398.9,238.2c-0.8-1.1-1.5-2.4-1.5-3.9c0.1-1.5,1.1-2.1,2.3-2.9c0.2-0.1,0.4-0.3,0.5-0.4
	c0.2,4.3,1.2,7.1,2.6,8.9C400.7,239,398.9,238.2,398.9,238.2z M414.2,257L414.2,257l11.9,6.5c0,0-7.3,9.4-14.9,11.1
	C411.2,274.7,411.3,260.5,414.2,257z"/>
<path d="M209.7,365.1l-0.1-0.7c0-0.2-0.2-0.4-0.5-0.4h-1.4c-0.6,0-1.2,0-1.8-0.2c-0.7-0.1-1.3-0.3-2-0.3s-1.4,0.1-2.1,0
	c-0.7-0.1-1.4-0.4-2.2-0.5c-0.7-0.1-1.4-0.2-1.9-0.6c-0.3-0.3-0.6-0.5-0.9-0.8c-1-0.9-1.9-1.9-2.8-2.8c-1.5-1.5-2.9-2.9-4.4-4.4
	c-4.6-6.7-8.2-11.2-10.6-13.5c-2.4-2.3-5.2-4.3-8.4-5.9c-0.2-0.1-0.4-0.2-0.6-0.3c-0.1-0.1-0.3-0.2-0.5-0.4
	c-2.2-5.1-5.6-11.5-10-19.1c-0.2-0.3-0.3-0.7-0.5-1.1s-0.4-0.8-0.7-1.3c-0.5-0.9-1-1.7-1.5-2.5c-0.3-0.5-0.6-0.9-0.9-1.3
	c-0.2-0.3-0.3-0.5-0.4-0.8c0.7-3.3,1.5-6.7,1.6-10c0.1-3-0.5-5.8-2-8.4c-0.2-0.5-2-3.1-5.4-7.8c-0.7-1.1-1.3-2.2-1.9-3.2
	c-1-2-2-4.6-2.8-7.8c-0.5-2.1-0.9-4-1.3-5.6c-0.2-1.1-0.3-2.1-0.4-2.3c0-0.3-0.1-1.1-0.3-1.6c-0.1-0.2-0.1-0.5-0.2-0.7
	c-0.1-0.5-0.1-1-0.1-1.4c-0.3-2-0.3-8.3,0.1-18.9l0.4-0.1c0.3-0.1,1.6-0.2,2.7-0.3c1.2-0.2,2.4-0.4,2.7-0.5s1.4-0.3,2.4-0.4
	c3.4-0.4,5.2-0.8,6.8-1.7c0.5-0.3,0.8-0.4,1.3-0.4c0.3,0,0.6,0,1,0.1c2.6,0.2,3.4,0.4,5.5,1.3c1.9,0.8,2.6,1,4.6,1.4
	c0.5,0.1,1,0.2,1.1,0.2c0.1,0.1,1.4,0.2,3,0.3c3.1,0.2,4.4,0.4,5.9,0.8c1.7,0.5,3.3,1.1,3.5,1.3c0.1,0.1,0.7,0.5,1.4,0.8
	c1.2,0.6,1.3,0.7,1.5,1.5c0.6,1.8,2.1,3.6,3.7,4.4c0.7,0.3,1.3,0.8,1.7,1.3c0.9,1.1,1.4,1.4,2,1.4l0,0c0.7,0,1-0.4,1-1.4
	c0-0.9-0.5-1.9-1.3-2.5c-0.3-0.2-0.4-0.4-0.3-0.4c0.4,0,1.4,0.9,2.6,2.4c0.9,1.1,1.4,1.6,1.8,1.6c0.2,0,0.4-0.1,0.6-0.4
	c0.4-0.4,0.4-0.7,0.1-1.1c-0.2-0.1-0.3-0.6-0.4-1c-0.1-0.5-0.3-1-0.8-1.4c-0.6-0.7-0.9-1.1-0.8-1.1c0.1,0,0.2,0.1,0.5,0.4
	c0.4,0.3,1,0.8,1.3,1s0.8,0.6,1.1,0.9c0.4,0.3,0.9,0.5,1.3,0.5c1,0,0.9-1.5,0.5-2c-0.2-0.4-0.5-0.6-0.8-0.9
	c-0.3-0.3-0.5-0.6-0.8-0.8l-0.3-0.3c-0.2-0.2-0.4-0.3-0.6-0.4c0.1,0.1,0.3,0.1,0.4,0.1c0.2,0.1,0.3,0.1,0.4,0.3
	c0.3,0.2,0.5,0.5,0.9,0.5c0.5,0.1,1.2-0.3,0.9-0.8c-0.2-0.4-0.2-0.7-0.3-1.1c-0.1-0.6-0.4-1.1-0.8-1.5c-0.3-0.4-0.6-0.8-0.9-1.1
	c-0.2-0.2-0.4-0.3-0.6-0.5c-0.1-0.1-0.4-0.3-0.5-0.3c-0.1-0.4-0.4-1-0.8-1c-0.2,0-0.9-0.2-1.6-0.4c-0.4-0.1-0.8-0.3-1.2-0.4
	c-0.5-0.1-1-0.2-1.5-0.4c-1-0.4-1.9-0.8-2.9-1.2c-0.1-0.1-0.2-0.1-0.3-0.2c-0.5-0.2-1-0.4-1.5-0.7c-0.4-0.2-0.8-0.4-1.2-0.4
	c-0.7-0.1-1.3,0-2-0.3c-0.7-0.2-1.5-0.5-2.2-0.9c-0.4-0.2-0.8-0.3-0.9-0.3c-0.1,0-0.8-0.3-1.7-0.7c-2.6-1.2-2.9-1.3-3.7-1.5
	c-0.5-0.1-1-0.3-1.2-0.4c-0.2-0.1-0.7-0.3-1.2-0.4c-0.5-0.1-1.4-0.4-2.1-0.7c-0.7-0.3-1.6-0.6-2.1-0.7c-0.5-0.1-1-0.3-1.1-0.4
	c-0.6-0.5-1.7-0.6-2.5-0.8c-1-0.3-2.1-0.5-3.2-0.6c-1.8-0.1-3.7,0.2-5.5,0c-1.7-0.2-3.4-0.5-5-0.9c-1.1-0.3-2.9-0.6-3.6-0.7
	c-0.1,0-0.2,0-0.3,0c-1.4,0-4.6,0.2-5,0.3c-0.1,0-0.3,0.1-0.6,0.1c-0.7,0-1.9-0.2-2.5-0.4c-0.8-0.3-3.6-0.7-4.7-0.7c0,0,0,0-0.1,0
	c-3,0-4,0.2-5.5,1.1c-1.8,0.9-3.7,1.3-5.7,1.6c-0.1,0-0.3,0-0.4,0s-0.2-0.1-0.3-0.1c-0.7-0.3-1.5-0.2-2.2,0.1
	c-0.2,0.1-0.4,0.1-0.5,0c-0.1,0-0.1-0.1-0.2-0.2c-0.5-0.7-1.2-1.9-1-2.8c0.1-0.3,0.1-1-0.2-2c-0.2-0.9-0.3-2.3-0.3-3.2
	s-0.1-2.2-0.3-2.8c-0.3-1.3-1.7-4.3-2.6-5.6c-0.7-1-2.9-2.6-3.9-2.9c-0.4-0.1-1-0.2-1.4-0.3s-1.1-0.1-1.7-0.1
	c-0.7,0-1.3,0.1-1.9,0.2c-3.3,0.7-4.3,1.1-6.3,2.5c-1.9,1.4-2.1,1.6-2.9,2.8c-0.7,1.1-0.8,1.3-0.9,2.4c-0.1,1,0,1.2,0.3,1.5
	s0.4,0.4,0.2,1.4c-0.1,0.5-0.1,1.8-0.1,2.9c0,1.9,0.2,2.5,1.1,3.8c0.2,0.2,0.2,0.5-0.1,1.1c-0.7,1.7-0.5,2.4,0.5,2.8
	c0.2,0.1,0.5,0.3,0.5,0.6c0.1,0.2,0.4,0.5,0.6,0.6c0.3,0.1,0.4,0.3,0.5,0.8c0.1,0.4,0.2,1,0.3,1.4c0.1,0.4,0.2,1.1,0.2,1.5
	c0,1.6,0.7,2.4,2.1,2.4c0.5,0,1.1-0.1,1.9-0.4c1-0.3,2.1-0.5,2.9-0.5c0.3,0,0.6,0,0.9,0.1c0.9,0.3,1.8,2,2.1,3.7
	c0.1,0.9,0.1,0.9-0.4,1.3c-0.3,0.2-0.9,0.6-1.3,0.8c-1.8,0.9-3.3,2.1-4.4,3.4c-2.4,2.9-3.1,4.3-3.9,7.8c-0.2,1-0.5,2-0.5,2.2
	c-0.4,1.1-2.2,4.1-2.6,4.7c-0.3,0.4-0.5,0.9-0.5,0.9c0,0.1-0.4,0.8-0.9,1.5s-0.9,1.4-0.9,1.5c0,0,0,0-0.1,0c-0.3,0-1.5-0.4-1.8-0.6
	c-0.1-0.1-0.7-0.3-1.3-0.5c-0.6-0.2-1.6-0.5-2.2-0.8c-0.6-0.2-1.5-0.6-1.9-0.7s-1.1-0.5-1.5-0.9c-1.7-1.4-6.7-6.7-6.7-7.2
	c0-0.1,0.2-1.2,0.4-2.3c0.3-1.6,0.4-2.3,0.3-3.2c-0.1-1.3,0.2-2.6,0.9-3.2c0.2-0.2,0.4-0.5,0.4-0.7c0-0.5-0.6-0.9-1.2-0.9
	s-1.9,0.5-2.2,0.8c-0.6,0.8-0.8,1.1-0.9,1.9l-0.1,0.8l-0.7-0.7c-0.6-0.6-1.8-2.6-2.1-3.7c-0.2-0.5-1.4-2.7-2.1-3.7
	c-0.5-0.7-1.5-1.4-2.2-0.5c-0.2,0.3-0.3,0.7-0.4,1.1c-0.3-0.3-0.5-0.5-0.8-0.8c-0.1-0.1-0.3-0.3-0.4-0.4c-0.3-0.2-0.7-0.1-1,0
	c-0.1,0-0.2,0-0.3,0.1c-0.1,0.1-0.2,0.2-0.2,0.3c-0.3,0.9,0.4,1.8,0.8,2.7c0.5,1,0.9,1.9,0.9,1.9c-0.1,0-0.4-0.6-0.8-1.3
	c-0.9-1.7-1.1-1.9-1.7-1.9c-1.3,0-0.9,2.2,0.7,4.5c0.3,0.4,0.5,0.8,0.5,0.8c0,0.1,0.2,0.5,0.5,0.9c0.2,0.3,1.4,2.1,0.4,2.1
	c-0.2,0-0.3-0.1-0.5-0.1c-0.9-0.5-1.7-1.3-2.4-2c-0.2-0.2-0.5-0.4-0.8-0.6s-0.7-0.1-0.9,0.1c-0.2,0.2-0.3,0.4-0.3,0.7
	c0,0.9,0.7,1.6,1.3,2.1c0.7,0.6,1.4,1.2,2.2,1.6c0.9,0.4,1.3,0.7,1.5,1.2c0.3,0.5,0.6,0.9,0.9,1.3c0.4,0.5,0.7,1,1,1.5
	c0.4,0.7,0.9,1.3,1.4,1.9c0.3,0.4,0.8,0.7,1.1,1.1c0.7,0.7,1.5,1.5,2.1,2.3c0.6,0.7,2.2,3.2,2.8,4.2c0.3,0.5,1.1,1.6,1.9,2.5
	c2.5,3,5.1,5.9,7.9,8.5c0.3,0.2,0.5,0.5,0.8,0.8c0.6,0.6,1.3,1.1,2,1.6c0.7,0.6,1.5,1,2.2,1.6c0.1,0.1,0.3,0.3,0.4,0.4
	c1.2,0.9,2.5,0.2,3.6-0.6c0.9-0.7,1.8-1.4,2.7-2.2c0.6-0.6,1.1-1.3,1.7-1.9s1.2-1.2,1.9-1.8c1.3-1.2,3.1-3,4.1-4.1
	c0.7-0.8,1.4-1.5,2.1-2.2c0.7-0.6,1.4-1.3,1.8-2.2c0-0.1,0.1-0.2,0.2-0.2c0,0,0.1,0,0.1,0.1c1.1,1.6,2.1,3.2,3,4.9
	c0.6,1.1,1.3,2.2,1.8,3.3c0.2,0.6,0.4,1.1,0.7,1.7c0.3,0.6,0.6,1.3,0.9,1.9c0.2,0.4,0.5,1,0.7,1.4s0.7,1.2,1,1.7
	c0.3,0.6,0.8,1.4,1.1,1.8c0.7,1,1,2,1.5,5c0.4,2.9,0.4,3.4-0.2,3.6c-0.2,0.1-1.2,0.4-2.1,0.6c-0.9,0.3-2.1,0.6-2.7,0.7
	c-1.2,0.1-2.4,0.6-3.6,0.9c-1.5,0.5-3.1,1.2-4.6,1.8c-0.4,0.2-0.9,0.3-1.3,0.5s-0.8,0.3-1.2,0.5c-3.5,1.4-7,2.8-10.3,4.7
	c-0.7,0.4-1.3,0.8-2,1.2c-3,1.9-4.4,4.4-4.3,7.2c0.1,2.3,1,5,2.9,7.9c5.1,7.8,10.7,15.5,16.8,22.9c0.9,1.1,1.5,2.7,2.1,4
	c0.4,0.9,1.4,2.3,1.4,3.3c0,1.2-0.9,2.6-1.4,3.5c-0.5,1-1,2.1-1.6,3.1c-0.2,0.4-0.5,0.9-0.6,1.4s-0.1,1-0.3,1.4
	c-0.3,0.6-0.8,1.1-1.2,1.5c-0.9,0.8-1.9,1.3-2.9,1.8s-2.1,1-3.3,1.2c-1.2,0.2-1.8,1.1-1.6,2.2c0.1,0.4,0.2,0.7,0.4,1.1
	c0.2,0.4,0.4,0.4,0.8,0.6c0.1,0.1,0.2,0.2,0.3,0.2c0.1,0.1,0.3,0.1,0.4,0.1c1.5,0.3,3.1,0.4,4.7,0.4c3.7,0,7.3-1.9,10.8-3
	c0.2-0.1,0.3-0.1,0.5-0.2c1-0.3,2-0.6,2.9-0.9c1-0.4,1.9-0.8,2.8-1.2c1-0.4,2-0.7,3-1c0.6-0.2,1.1-0.4,1.6-0.7
	c0.5-0.3,0.9-0.6,1.4-0.9c0.3-0.2,0.6-0.4,0.9-0.6c0.2-0.1,0.3-0.3,0.5-0.5c0.2-0.3,0.6-0.7,0.6-1.1c0-0.2-0.1-0.4-0.3-0.5
	c-0.6-0.7-2-2.6-2.6-3.8c-0.2-0.4-0.5-0.9-0.7-1.2c-0.2-0.4-0.7-0.8-1-1.2c-0.4-0.4-0.7-0.9-1.1-1.3c-0.2-0.2-0.3-0.5-0.6-0.7
	c-0.2-0.2-0.5-0.2-0.8-0.4c-0.2-0.1-0.4-0.3-0.5-0.5c-0.7-0.9-1.3-2-1.9-3c-0.6-0.9-1.2-1.8-1.6-2.8c-0.2-0.4-0.5-1.1-0.9-1.6
	c-0.3-0.5-0.7-1.1-0.8-1.3c-0.3-0.7-0.7-1.4-0.9-1.5c-0.2-0.1-2.8-5.2-3.1-5.9c-0.1-0.3-0.3-0.8-0.5-1.1c-0.4-0.6-1-2.9-1-3.6
	c0-0.4-0.6-2.9-0.9-3.3c-0.1-0.2-0.3-0.6-0.4-1c-0.6-1.5-1-2.2-2.3-4.2c-0.7-1-0.7-1-1.3-1.8c-0.2-0.3-0.7-0.8-0.9-1.2l-0.4-0.5
	c1,0.3,1.9,0.5,2.6,0.6c1.9,0.4,4.1,0.6,6.4,0.6c0.1,0,0.2,0,0.2,0c3.1,0,6.6-0.2,10.5-0.6c0.7,0,1.1-0.1,1.2-0.1
	c1.1-0.1,2.3-0.3,3.5-0.4c0.1,0,0.2,0,0.3,0c0.7,1.4,1.8,3.1,3.3,5.2c1.2,1.7,6.1,7.6,14.9,17.8c0,0,0.1,0.1,0.2,0.2
	c0.2,0.3,0.4,0.5,0.4,0.5c0,0.1,0.1,0.2,0.2,0.3c0.7,1,1.8,2.8,3.2,5.3c0.5,0.8,1.1,1.5,1.6,2s1.1,1,1.7,1.4c0.3,0.2,1.3,0.6,3,1.1
	c0.4,0.2,1,0.5,1.6,1c5.5,4.8,11.8,10,19,15.6c1.9,1.5,3.7,3.2,5.3,5c0.9,1,1.7,1.9,2.5,3c0.6,0.9,1.6,1.7,2,2.7
	c0.3,0.7,0.2,1.5,0.5,2.2c0.3,0.8,0.8,1.5,1.3,2.2c0.8,1.2,1.5,2.5,1.8,3.9c0.2,1,0.3,2.1,0.7,3.1c0.2,0.3,0.4,0.7,0.5,1
	c0.5,1.3,0.1,3.6-0.5,4.8c-0.5,0.9-1,2.7-1,3.6c0,0.6,0.3,1.2,0.9,1.6c0.1,0.1,0.7,0.2,1.2,0.2c0.9,0,1,0,2.1-1.1
	c0.6-0.6,1.4-1.2,1.6-1.4c0.6-0.5,1.1-1.2,1.4-1.9c0.4-0.7,0.8-1.4,1.1-2.2c0.8-1.8,1.5-3.6,2-5.4c0.4-1.3,0.7-2.6,1-3.9
	s0.4-2.6,0.8-3.9c0.3-0.8,0.5-1.6,0.6-1.9C209.6,370,210.1,366.8,209.7,365.1z"/>
<path d="M539.6,254.4c1.5-1.3,2.4-3,2.4-4.9c0-4-4.2-7.3-9.5-7.3s-9.5,3.3-9.5,7.3c0,1.6,0.7,3.1,1.9,4.3c0.1,0.4,0.1,0.6,0.1,0.6
	s-0.5,0.5-0.9,1.4c-0.7,1-1.1,2.2-1.1,3.4c0,1.6,0.6,3,1.7,4.2l-5.4,4.4c0,0-3.1-7.5-2.2-10.6c0.8-3.2,0.7-9.3-1.2-13.1
	c-1.9-3.7-7-7.6-7-7.6l0.1-1.1c0,0,1.2,0.8,2.2,0.5c2-0.7,3.9-3.4,5-4.9c0.8-1.2,1.6-2.5,1.7-4c0.1-1.4,0.5-2.7,1.3-3.8
	c0.9-1.2,0.1-2.4,0.3-3.7c0,0,1.7-1.6,1.8-3.7c0.2-3-1.2-9.2-8.4-10.1c-7.2-0.8-11.7,2.7-12.6,5.5s-0.5,5.7-0.5,5.7
	s-1.8,2.7-1.2,4.5c0.6,1.8,1.2,2.2,1.2,2.2s-1.4,7.4-3.5,9.1c-2,1.8-13.7,11.4-11.1,25.5c2.6,14.1,11.8,23,10.5,26.7
	c-0.9,2.7-2.1,10.5-2.7,14.3c-0.2,1.3-0.5,2.6,0.7,3.3l0.7,0.4c0,0,2.3,22,2.1,24.6c-0.1,0.8,0.5,1.6,1.3,1.9l-0.9,12.2
	c-0.1,1.9-0.7,3.7-1.6,5.3c-1.3,2.5-3.2,6.7-3.2,10.9c0,6.6,1.6,17.5,2,18.7c0.1,0.3,0.1,0.8,0.1,1.4c-0.1,2.5-0.9,5-2.2,7.2
	c-1.5,2.6-3.2,6.5-0.6,7.8c4.1,2.1,9.4,1.3,9.4,1.3s9,3.9,14.5,3s9.2-3.5,7.8-5s-12.1-5-13.3-5.8c-1.2-0.7-3.1-2.8-3.1-2.8
	s12.1,2.2,14.1,0.7c1.3-0.9,2.3-2.5,2.9-3.5c0.3-0.5,0-1.2-0.6-1.4c-2.8-1-10-3.7-12-5.7c-2.5-2.4-3.3-13.2-0.4-19.2
	s11.5-16.3,12-22.1c0.2-3.2-1.3-10.4-1.3-10.4h0.3c0.9,0,1.5-0.7,1.4-1.5l-1.4-12.5c-0.2-2-0.7-3.9-1.5-5.7
	c-0.7-1.5-1.3-3.4-1.2-4.2l0.7-20.6l9.8-10.9c0.8,0.2,1.7,0.3,2.6,0.3c5.2,0,9.5-3.3,9.5-7.3C542,257.4,541.1,255.7,539.6,254.4z"/>
<path d="M636.9,309.7c-0.4-2.6-2.1-5.2-4.5-6.1c-0.3-1.2-0.6-2.5-1-3.6c-0.7-2.1-0.3-4.6-0.3-6.8c0-5-0.2-10.1-1.4-15
	c-0.2-0.7-0.4-1.5-0.7-2.2c-0.8-1.8-2.4-3.2-3-5.1c-0.7-2-0.4-4.3-0.9-6.3c-0.6-2.2-1.3-4.3-2.4-6.3c-0.1-0.3,0-1,0-1.2
	c0-0.7-0.1-1.4-0.2-2.1c-0.2-1.4-0.6-2.8-1-4.2c-0.4-1.7-0.9-3.4-2.1-4.6c-0.9-0.9-2.1-1.5-3.2-1.9c-1-0.4-2-0.7-3-1
	c-0.4-0.1-0.9-0.3-1.3-0.5c-0.3-0.2-0.6-0.4-0.9-0.6c-2.5-1.8-4.9-3.6-7.4-5.4c-1.3-1-0.6-3.5-0.2-4.8c0.7-1.1,1-2.3,1.3-3.5
	c0-0.2,0.1-0.4,0.2-0.5c0.1-0.1,0.3-0.2,0.4-0.4c0.4-0.4,0.3-1.1,0.3-1.6c0.1-0.7,0.4-1.4,0.7-2s0.4-1.4,0.2-2.1
	c-0.2-0.4-0.4-0.7-0.6-1c-0.3-0.7-0.3-1.4-0.3-2.2c0-3.1-1.1-6.4-3.6-8.2c-0.9-0.7-2.1-1.1-3.2-1.3c-1.9-0.4-3.8-0.3-5.7,0.3
	c-0.7,0.2-1.5,0.6-2.1,1c-2.5,1.7-3.5,4.9-3.5,7.9c0,0.9,0,1.9-0.5,2.7c-0.1,0.2-0.3,0.5-0.4,0.7c-0.3,0.7-0.1,1.5,0.1,2.2
	s0.6,1.4,0.7,2.1c0,0.5-0.1,1.2,0.3,1.5c0.1,0.1,0.3,0.2,0.4,0.3c0.1,0.2,0.2,0.4,0.2,0.6c0.5,2.5,2.1,4.8,1.7,7.4
	c-0.1,0.4-0.3,0.7-0.7,0.9c-0.1,0.1-0.3,0.2-0.4,0.2c-2.2,1.8-4.5,3.3-6.7,5.1c-0.3,0.2-0.6,0.5-0.9,0.6c-0.4,0.2-0.8,0.3-1.2,0.5
	c-1.3,0.4-2.7,0.8-3.9,1.4c-1.3,0.6-2.5,1.4-3.2,2.5c-0.7,1-1,2.2-1.3,3.3c-0.6,2.1-1.2,4.3-1.2,6.5c0,0.5,0,1.1-0.1,1.6
	s-0.4,1-0.7,1.5c-0.9,1.7-1.5,3.7-1.8,5.7c-0.3,1.8-0.1,3.7-0.8,5.4c-0.7,1.9-2.2,3.3-3,5.1c-0.3,0.8-0.5,1.6-0.7,2.4
	c-0.9,4.3-1.4,8.7-1.3,13.1c0,2.2,0.2,4.5,0,6.7c-0.1,1.1-0.3,2.2-0.6,3.3c-0.2,0.7-0.3,1.8-0.9,2.3c-0.5,0.5-1.3,0.8-1.9,1.3
	c-0.6,0.6-1.1,1.2-1.5,1.9c-0.8,1.4-1.1,3-1,4.5c0.3,3.2,2.8,6,5.9,6.7c0.6,0.1,1.3,0.2,1.9,0.3c0.4,0,0.9,0.1,1.3,0.1
	c2.3,0,4.5-1.2,6-3c0.8-1,1.4-2.2,1.5-3.5c0.1-1.1-0.2-2.1-0.5-3.1c-0.4-1.4-1.1-2.8-2.1-3.9c-0.9-0.9-2.1-1.7-3.1-2.5
	c-0.3-0.2-0.5-0.5-0.4-0.9c0.7-1.9,1.3-3.8,2-5.7c1.1-3.2,2.9-6.1,3.9-9.2c0.3-0.8,0.5-1.7,0.7-2.6l1.7-7.4c0.3-1.2,0.6-2.4,1.1-3.6
	c0.9-2.4,1.8-4.7,2.9-7l1.3,2.8l0.9,1.3l0.7,2c0,1.3,0.2,2.6-0.1,3.9c-0.4,2.1-0.4,4.3,0,6.5c0.2,1.1,0.6,2.3,0.3,3.4
	c-0.3,1.3-1.4,2.2-1.9,3.4c-0.1,0.4-0.2,0.8-0.3,1.1c-0.2,0.4-0.4,0.8-0.6,1.3c-1.1,2.1-1.6,4.4-2.1,6.7c-0.3,1.1-0.8,2-1.1,3
	c-0.1,0.3-0.2,0.7-0.2,1.1c-1,6.3-1.6,12.6-2.3,19c-0.5,4.8-1.1,9.5-1.6,14.3v0.3c-0.2,2,1.3,3.8,3.4,3.9c1.3,0,2.6,0.1,4,0.2
	c0.5,5.3,0.5,10.6,0.8,15.9c0.3,4.4,1.5,8.8,1.5,13.1c0,2.3,0.5,5.1,0,7.4c-0.1,0.7-0.7,1.2-1.4,1.2c-0.6,0-1.3,0.3-1.7,0.8
	c-0.7,0.8-0.9,1.7-1.4,2.7c-0.9,2-2.7,3.7-4.8,4.4c-1.7,0.6-3.5,0.8-5.1,1.6s-2.6,3-1.6,4.5c0.5,0.6,1.2,0.9,1.9,1.2
	c5.4,1.7,11.1-1.1,16.7-0.6c2.2,0.2,4.5,0.8,6.4-0.1c0.7-0.3,1.3-0.9,1.5-1.6c0.1-0.5,0-1.1-0.1-1.7c-2.1-8.8-1.8-17.2-1.2-26.1
	c0.1-2,1.3-3.7,1.8-5.6c1.4-5.1,0.2-9.9-0.9-14.9v-0.5l0.3-1.6l2-5.3c1.1-0.8,2.6-1.5,2.6-1.5s1.7,0.8,2.9,1.8l1.7,5.1l0.3,1.6v0.5
	c0.1,1.9-1,4.3-1.3,6.2c-1.1,7,2.5,13.2,3,20.1c0.5,6.8-0.4,13.7-2,20.3c-0.1,0.5-0.3,1-0.1,1.5c0.3,1.3,2,1.7,3.3,1.7
	c3.6,0.2,7.1,0.5,10.7,0.7c3.2,0.2,6.5,0.4,9.7,0.1c1.2-0.1,2.6-0.4,3.1-1.7c0.4-1,0.1-2.2-0.6-3c-1.7-1.9-4.3-1.9-6.5-2.8
	c-2-0.8-3.7-2.4-4.6-4.3c-0.5-0.9-0.8-2-1.5-2.8c-0.4-0.5-1.1-0.8-1.7-0.8c-0.5,0-0.9-0.5-1-1c-0.1-1.5-0.4-3.9-0.4-4.4
	c0-2.3,0.2-4.6,0.4-6.9c1-8.5,1.2-17.5,2.1-26.1l0.1-0.4c1.4-0.3,2.7-0.6,3.9-0.8c1.8-0.3,3.1-2,2.9-3.8l-1.5-13.8
	c-0.5-4.8-1-9.7-1.6-14.5c-0.3-2-0.7-4-1.2-5.9l-1.8-6.2c-0.2-0.7-0.4-1.5-0.8-2.1c-0.2-0.4-0.5-0.7-0.6-1.1
	c-0.1-0.3-0.1-0.7-0.2-1.1c-0.3-1.2-1.4-2.1-1.9-3.3c-0.7-1.8,0.2-3.8,0.4-5.7c0.2-1.5-0.1-3.1-0.3-4.6c-0.1-1.3-0.1-2.6,0-3.9
	l0.7-2l0.9-1.3l1.3-2.8l1.1,2.4l1.2,3.5c0.4,1.3,1.1,2.4,1.4,3.8c0.7,2.8,1.3,5.7,2,8.5c0.2,0.8,0.4,1.6,0.6,2.4
	c1,3.2,2.8,6.1,4,9.2c0.7,1.9,1.4,3.8,2,5.7c0,0.4-0.1,0.7-0.4,0.9c-1.5,1-3.3,2.4-4.2,4c-0.4,0.7-0.6,1.4-0.9,2.2
	c-0.2,0.7-0.5,1.5-0.5,2.2c-0.1,1.6,0.4,3.2,1.4,4.5s2.4,2.2,3.8,2.7c0.4,0.2,0.8,0.3,1.3,0.3c0.5,0.1,1,0,1.5,0
	c1-0.1,2.1-0.2,3.1-0.4c2.8-0.8,5-3.3,5.5-6.2C637.1,311.3,637,310.5,636.9,309.7z"/>
<path d="M773.7,219h0.3v-4.7c0-0.7-1-0.3-1.8-0.3H771v-3.2c0-0.7-2-0.8-2.7-0.8H767v-2.5c0-0.7-1.9-0.5-2.6-0.5H760
	c-0.7,0-0.1-0.3-0.1,0.5V220H656v-12.5c0-0.7-3.4-0.5-4.2-0.5h-4.4c-0.7,0-0.5-0.3-0.5,0.5v2.5h-3.4c-0.7,0-0.6,0-0.6,0.8v3.2h-3.3
	c-0.7,0-0.7-0.4-0.7,0.3v4.7h-0.8c-1.3,0-1.2,0.3-1.2,1.6v1.9c0,1.3-0.1,1.4,1.2,1.4h0.8v4.9c0,0.7-0.1,1.1,0.7,1.1h3.3v2.5
	c0,0.7-0.1,1.5,0.6,1.5h3.4v1.8c0,0.7-0.2,2.2,0.5,2.2h4.4c0.7,0,4.2-1.5,4.2-2.2V224h20.4c0,3-0.3,3.3-1.2,5.6
	c-1.3,3.2-1.8,5.6-1.9,9.4c-0.1,2.6,0,6.7,0.1,8.2c0.2,1.3,0.3,1.7,1.1,3c0.3,0.5,1.4,2.5,2.4,4.3c2.1,4.1,2.7,5.1,3.6,6.4
	c1.4,2,2.9,4.9,5.7,8.1c1.8,2.1,1.9,1.9,2.2,5.9l0,0l0,0l0,0c0.3,2,0.9,5.4,1.4,6.6c0.1,0.4,0.4,0.8,0.5,1.5
	c0.2,0.7,0.6,1.9,0.9,2.9c0.3,1,0.7,2.1,0.8,2.5c0.4,2,1.3,9.2,0.9,13.6c-0.5,6.2-1.9,6.8-4.6,12.5c-0.5,1-1,2-1.4,3.1
	c-0.6,1.5-0.5,3-0.8,4.6c-0.2,1.3-0.5,2.5-0.8,3.8c-0.6,2.6-1,4.8-1.5,8.4c-0.5,3-0.6,4.4-0.5,5.7c0,1.1,0.1,1.2,0.3,1.9
	c0.2,0.4,0.4,0.8,0.5,0.9c0.1,0.2,0.2,0.7,0.4,1.7c0.1,0.8,0.2,1.6,0.3,1.8c0.1,0.2,0,0.8-0.2,1.9c-0.9,5.4-0.9,5.4-1.8,7.3
	c-0.8,1.8-1.3,3.4-1.6,5.8c-0.2,1.6-0.3,6.6-0.2,14c0,2.1,0.4,5.4-0.7,7.3c-0.2,0.4-0.6,0.7-0.9,1.1c-1.2,1.4-2,3-2.9,4.6
	s-2.6,3-3,4.8c-0.1,0.7-0.1,1.2,0.2,1.8c0.2,0.6,0.7,0.9,1.3,1c0.9,0.2,1.9,0,2.8,0c1.2,0,2.6,0.2,3.7-0.4c0.9-0.5,1.4-1.3,2.3-1.8
	c0.6-0.3,1.2-0.4,1.8-0.6s1.2-0.6,1.3-1.2c0.1-0.4,0-0.9-0.1-1.4c-0.2-0.9-0.1-1.8-0.2-2.7c-0.1-1.3-0.5-2.6-0.7-3.9
	c-0.3-2.3,0.8-4.5,1.2-6.7c0.8-3.5,1.1-4.8,1.9-6.8c0.8-2.1,1-2.7,1.3-4.3c0.5-2.4,0.8-4.5,0.8-6.7v0.5c0-0.2,0-0.2,0-0.2l0,0
	c0-3,0.1-3.2,1.2-5.2c1.3-2.6,1.8-4.3,3-8.5c0.2-0.8,0.3-2,0.9-2.5c0.9-0.9,2.7-0.5,3.4-1.3s0.8-2.8,1.1-3.8
	c0.4-1.4,1.4-2.9,2.1-4.2c0.3-0.5,0.7-1.1,1.5-1.6c1-0.6,1.8-0.6,2.8,0c0.8,0.5,1.3,1.1,1.6,1.6c0.8,1.6,1.9,3.4,2.4,5.1
	c0.2,0.7,0.3,2.2,0.8,2.8c0.7,0.9,2.3,0.4,3.2,1.1c0.9,0.6,1,1.6,1.2,2.6c1.1,4.3,1.6,6.2,3,8.8c1.1,2.1,1.2,2.2,1.2,5.2l0,0
	c0,0,0-0.1,0,0.2v-0.3c0.1,2.2,0.3,4.2,0.8,6.6c0.3,1.6,0.5,2.1,1.3,4.2c0.7,1.8,1.2,3.6,1.7,5.5c0.6,2.8,1.8,5.5,1.5,8.4
	c-0.1,0.9-0.3,1.7-0.5,2.6c-0.2,1.2-0.2,2.4-0.3,3.5c-0.1,0.4-0.2,0.9-0.1,1.3c0.2,0.8,1,1.2,1.8,1.5c0.8,0.2,1.6,0.4,2.2,0.9
	c0.3,0.3,0.5,0.7,0.8,0.9c0.6,0.5,1.4,0.6,2.1,0.7c1.4,0.1,2.8,0.2,4.2,0.1c0.5,0,1,0,1.4-0.3c0.6-0.3,1-1.1,1-1.8
	c0.1-2.3-2.1-3.7-3.1-5.6c-0.9-1.7-1.6-3.6-3.1-4.9c-0.3-0.3-0.7-0.5-0.9-0.9c-1-2.1-0.6-5-0.6-7.2c0.1-7.4,0-12.4-0.2-14
	c-0.3-2.4-0.7-3.9-1.6-5.8c-0.9-1.9-0.9-1.9-1.8-7.3c-0.2-1.1-0.2-1.6-0.2-1.9c0-0.2,0.2-1,0.3-1.8c0.1-1.1,0.2-1.5,0.4-1.7
	c0.1-0.1,0.3-0.6,0.5-0.9c0.3-0.6,0.3-0.8,0.3-1.9c0-1.4-0.1-2.7-0.5-5.7c-0.4-2.6-0.8-5.3-1.4-7.9c-0.7-3-0.8-6.2-1.8-9.1
	c-0.4-1.1-1-2.2-1.5-3.3c-2.6-5.5-3.9-6.1-4.4-12.1c-0.4-4.4,0.5-11.7,0.9-13.6c0.1-0.5,0.4-1.6,0.8-2.6c0.3-1,0.7-2.4,0.9-3.2
	c0.2-0.7,0.4-0.7,0.5-1.1c0.4-1.2,1-4.6,1.4-6.6l0,0l0,0l0,0c0.3-4,0.4-3.8,2.2-5.9c2.8-3.2,4.3-5.5,5.7-7.6
	c0.9-1.4,1.5-2.6,3.6-6.7c1-1.9,2-4,2.4-4.5c0.8-1.3,1-1.8,1.1-3c0.2-1.5,0.3-5.6,0.1-8.2c-0.2-3.8-0.7-6.2-1.9-9.4
	c-0.9-2.4-1.2-2.7-1.2-5.7H760v11.8c0,0.7-0.7,2.2,0.1,2.2h4.4c0.7,0,2.6-1.5,2.6-2.2V234h1.3c0.7,0,2.7-0.8,2.7-1.5V230h1.2
	c0.7,0,1.8-0.4,1.8-1.1V224h-0.3c1.3,0,2.3-0.1,2.3-1.4v-1.9C776,219.3,775,219,773.7,219z M729.4,226c0.6,0.3,0.6,0.3,0.9,2.2
	c0.6,3.8,0.7,5.8,0.4,9.2c-0.2,3-0.2,6.5,0.2,9.5l0,0v-0.6c0,0,0-0.3,0-0.2V246l-0.5,0.2c-2.3,1.1-4,2.8-7.8,8.7l-0.8,1.1l0,0
	c0,0-0.1,0-0.2,0l0,0l-1.3,0.9c-1.9,1-3.6,2.1-4.2,2.5c-0.7,0.5-1.5,1.4-2.3,2.3l-0.6,0.8c-0.6,0-1.3-0.2-1.7-0.7
	c-0.3-0.4-0.4-0.8-0.6-1.3c0-0.1-0.2-0.9-0.2-1l0.5-0.8c0.6-1,1-2,1.3-3.4c0.2-1,0.2-1.1,0.5-1.3c0.8-0.5,0.9-1.3,0.9-5.5
	c0-3,0-3.2-0.3-4c-0.1-0.4-0.4-1.1-0.5-1.4c-0.6-1.1-1.9-2.5-3.7-3.3c-1.9-0.9-5-0.9-6.9,0c-1.8,0.9-3.5,2.2-4,3.2
	c-0.2,0.3-0.4,1-0.5,1.4c-0.2,0.8-0.2,1-0.3,4c0,4.2,0.1,5,0.9,5.5c0.3,0.2,0.3,0.3,0.5,1.3c0.3,1.4,0.7,2.4,1.3,3.4l0.5,0.8
	c0.1,0.1-0.1,0.5-0.1,0.6c0,0.2-0.1,0.5-0.2,0.7c-0.2,0.5-0.5,1.3-1,1.5c-0.3,0.1-1,0.3-1.3,0c-0.2-0.2-0.3-0.4-0.5-0.6
	c-0.8-1-1.6-1.8-2.3-2.3c-0.6-0.5-2.2-1.4-4.2-2.4l-1.3-0.6v-0.2c-0.1-0.1-0.1-0.3-0.2-0.3l0,0l-0.8-1.1c-3.9-5.9-5.6-7.8-7.8-8.9
	l-0.5-0.2v-0.1v0.7v0.6l0,0c0.4-3,0.5-6.5,0.2-9.5c-0.3-3.4-0.2-5.1,0.4-8.9c0.3-1.9,0.3-2.1,0.9-2.4c2-0.9,3.4-2.2,4-2.2h38.9
	C726,224,727.5,225.1,729.4,226z"/>
<path d="M939.3,344.6c-0.6-3.6-2.2-8.5-1.8-10.8c0.4-2.2-0.1-6-2.4-6.4c-2.3-0.4-3.7-3.1-4.4-3.1c-0.8,0-2.1,0.7-2.1,0.7
	s-9-6.3-12.9-9.2c-3.9-2.9-15.2-4.1-16.5-5.3s-8.4-6.5-10.1-8.5c-1.7-2-7.9-8.1-8.7-8.4s-2-1.7-2-1.7s0.5-1.7,0.8-3.7
	c0.2-0.9,0.3-1.9,0.3-2.9c0-6-4.4-10.9-9.9-10.9c-0.3,0-0.5,0-0.8,0c-0.3-0.1-0.5-0.1-0.5-0.1s1.9-8.5,2.6-10.3
	c0.7-1.8,1.7-13.2,2.1-14.9c0.4-1.7,1.2-7.7-3.1-9.3c-4.3-1.7-14.4-2.1-18.5-0.9c-4.1,1.2-7.5,2.2-10,2.3c-2.4,0.1-6.4-0.9-9.7,0.6
	c-3.2,1.4-4.7,3.1-7.9,3c-5.1-0.1-7.9,3.2-9.8,2.8c-1.9-0.4-2.1-2.6-2.1-4.2s-1.9-10.5-4.5-14.6c-2.7-4.1-11.3-11.2-19.7-5.8
	s-9.1,11.5-8.1,14c1,2.4,0.6,3.2,0.6,3.2s-1,2,0.1,3.9s0.5,3.5,1.2,4.7s1.3,1.5,2.2,3.1c0.9,1.7,0.6,6.6,1.5,8
	c3.3,4.9,5.5,5.3,5.9,5.9c0.6,0.9,1.1,1.9,0.4,2.6c-0.7,0.7-1.1,4.2-2.2,5c-2.9,2.2-3.8,5.8-3.3,11.1c0.4,5.3,2.4,11.9,2.4,11.9
	s0.3,5.7-0.4,8.8c-0.8,3.1-0.2,7.2-0.6,8.9c-0.3,1.7-2.7,7.2-1.2,15.4c1.4,8.2,4.3,27,4.3,27l-1,2.8c0,0-0.6-0.1-1.1,0.1
	c-1.7-2-3.8-3.3-5.8-3.6c-6.7-0.7-11,4.3-11,11.4s5.1,14.9,10,14.9s10.9-4.6,10.9-11.8c0-0.4,0,0-0.1-0.5c1.1,0.4,2.1,1.4,2.1,1.4
	h0.6c1.8,3,4.4,4.2,7,4.2c4.7,0,10.4-4.7,10.4-11.4c0-6.6-4.8-13.3-9.5-13.7c-1.4-0.1-2.7-0.1-3.8,0.2c0.7-3.5,1.9-9.8,2.4-12.4
	c0.8-3.8,0.4-7.9-0.2-14.6c-0.7-6.7,0-9.2,0.6-13.4s2-7.1,1.1-12.5c-0.8-5.4-1.5-8.3,0-8.4s6.3,3.7,9,4.2c2.7,0.6,3,0,5.1,1.1
	s11.1,6.2,12.3,7.5s2.7,8.4,7.5,11.6c4.9,3.2,12.8,9.3,13.9,11.4c1.1,2.1,2.4,5.5,7.5,4.7c5.1-0.9,6.4-4.5,6.4-4.5s8.1-0.3,9.9,0.2
	c1.8,0.6,3,1.6,3,1.6s-3,6.3-4,8.2c-1,1.9-3,6.8,0.3,7.4s7.5,0.1,9.7-5.5c0.9-2.5,2.9-8.3,2.9-8.3s1.9,0.6,3.4,1.3
	c1.6,0.8,4.4,0.7,5.5-1.2c1.1-1.9,1.6-4.2,1.6-4.2s5.9,1.6,11.2,3s14,1.4,15.6,3.4c1.7,2,2.6,3.4,2.6,3.4s2,6.5,0.8,8.4
	s-1,3.7-1,3.7s-1.2,2.1-0.8,3.2s5.9,2.3,9.3,1.4S939.9,348.2,939.3,344.6z M856.3,274.3c-3-1.2-4.4-0.9-4.4-0.9s-0.4-1.9-1.1-3.7
	c-0.7-1.8-3.3-9.3-3.3-9.3s2.3-1.1,4.4-1.9c2.1-0.8,6.7-4.7,6.7-4.7s0.6,2.4,1,3.8s1.3,9.8,1.6,12.2c0.2,2.4-1.8,5.7-1.8,5.7
	S859.3,275.5,856.3,274.3z"/>
<path d="M822.3,586.4c-0.6,0.5-7.7-2-11.1-4.8c-3.4-2.8-8.7-2.8-10.2-3.9c-0.6-0.4-1.3-1-2-1.6c-1.2-1-1.7-2.5-1.4-4
	c0.1-0.6,0.2-1.3,0.2-2.1c0-2.4-1.9-14.7-1.9-14.7s13.2-5.4,15.1-14.1c1.6-6.9-0.6-12.3-0.6-12.3s5.6-1.4,8.7-4.4
	c3.2-3,21.7-31.5,20.9-35.5c-0.9-4-10.6-15.6-14.7-17.3s-8.1-3.5-10.1-5.7s-10.2-9.1-14.2-9.9c-3.9-0.8-4.9,0-4.9,0l-13-5.1
	c-1.6-0.6-2.6-2.2-2.6-4l0.2-5.2c0,0,3.5-7.3,3.3-8.6c-0.3-1.3-0.9-1.9-0.9-1.9s2.4-10.2-4.3-14.4c-6.7-4.2-13.9-5.4-18-2.9
	c-4,2.5-3.3,8.5-3.3,8.5s-1.2,6.1-0.8,7.6s0.6,3.7,0.6,3.7s-0.9,2.2-0.5,3.9s1.9,10.8,4.6,11.5c0.8,0.2,1.2,1.2,1.3,2.2
	c0.3,1.6-0.4,3.3-1.8,4.2c-5,3.3-18.1,12-18.9,14.3c-1,2.9,0.1,9.1-0.9,12.7c-1,3.5-2.9,16.6,0,22.4s8.2,16.7,9.4,20
	s3.4,7.3,3.4,7.3s-8.6,11.8-6.8,17.5s20.1,30.8,22.7,39.1c1.9,6.1,0.9,11.8-1.5,16.3s-4.6,7.1-4.6,7.1s-6.8,4.6-7.1,7.5
	s2.8,4,8.6,3.7c5.8-0.4,14,0.6,15.9-0.9s0.6-3,4.3-4.6s7.5-4.2,4.7-10.2c-2.8-5.9-4.3-9.1-5.6-9.9s-0.7-10.6-0.7-10.6
	s4.6,7.3,8.2,6.5c3.5-0.8,4.8-1.8,6.8-1.6c2,0.1,7.1,2,10.5,2.3s6.8,0.4,6.8,2.3c0,1.9-0.4,5.8-2.2,9s-4.7,8.7-0.9,10.4
	c3.8,1.6,11.1,0.5,12.3-2.7c1.1-3.2,0-6.2,1-8.2s7.8-7.8,6.2-12.7C831.3,587.4,823,585.9,822.3,586.4z M801.8,502
	c1.3-7.3,4.4-21.6,4.4-21.6l3.8,0.9c0,0,2.8,3.4,7.1,5.1c4.3,1.6,8.9,4,8.9,4s-4.2,8.7-5,11.2s-6.4,14-6.4,14l-10.6,1
	C804,516.6,800.6,509.3,801.8,502z M755.7,516.6c-2-1.3-2-9.9-1.9-14.3s-3-7.2-3-7.2l0.9-3.5c0,0,2,1,4.6,4.4
	c1.9,2.6,2.2,21.4,2.2,21.4S757.7,517.8,755.7,516.6z"/>
<path d="M374.1,808.3l-16-62.8c-0.6-2.2-2.5-3.6-4.7-3.5l-0.6-2.3c-0.2-0.9-1.2-1.5-2.1-1.3l-2.4,0.6l-3.7-14.4
	c5.3-4.9,8.6-12,8.6-19.8c0-15-12.1-27.1-27.1-27.1S299,689.8,299,704.8c0,7.8,3.3,14.9,8.6,19.8l-3.7,14.4l-2.4-0.6
	c-0.9-0.2-1.9,0.3-2.1,1.3l-0.6,2.3c-2.1-0.2-4.1,1.3-4.7,3.5l-16,62.8c-0.6,2.2,0.5,4.4,2.4,5.3l-0.4,1.5c-0.3,1.2,0.4,2.4,1.6,2.7
	l10,2.5c1.2,0.3,2.4-0.4,2.7-1.6l0.4-1.5c2.1,0.2,4.1-1.3,4.7-3.5l16-62.8c0.6-2.2-0.5-4.4-2.4-5.3l0.6-2.3c0.2-0.9-0.3-1.9-1.3-2.1
	l-2.4-0.6l3-11.9c3.8,2.1,8.3,3.3,13,3.3s9.1-1.2,13-3.3l3,11.9l-2.4,0.6c-0.9,0.2-1.5,1.2-1.3,2.1l0.6,2.3c-1.9,0.9-3,3.1-2.4,5.3
	l16,62.8c0.6,2.2,2.5,3.6,4.7,3.5l0.4,1.5c0.3,1.2,1.5,1.9,2.7,1.6l10-2.5c1.2-0.3,1.9-1.5,1.6-2.7l-0.4-1.5
	C373.6,812.7,374.7,810.5,374.1,808.3z M303.9,704.9c0-12.4,10-22.4,22.4-22.4s22.4,10,22.4,22.4s-10,22.4-22.4,22.4
	S303.9,717.2,303.9,704.9z"/>
<path d="M941.5,485.9c-2.6-10.1-10.7-16.5-21.9-17.7c-1-0.1-1.9-0.2-2.8-0.2c-9.7,0-16.7,5.7-20.6,13.5
	c-4.1-8.1-11.2-13.4-21.5-13.4c-0.7,0-1.4,0-2.1,0.1c-10.2,0.7-19.1,6.8-21.8,18.8c-5,21.5,18.6,43.5,45.4,64.8
	C924.6,530.6,946.8,506.6,941.5,485.9z M927.3,516.3l-9.2-0.3l0,0c-0.2,0-0.5,0.3-0.6,0.1c-0.8-0.9-1.5-1.2-2.2-1.2
	c-1.1,0-2,0.7-2.3,1.1c-0.2,0.2-0.3,0.1-0.7,0.1h-0.1l-3.2,0.3l-1.1,12.3c0,0.4-0.4,0.4-0.8,0.4l0,0c-0.4,0-0.8,0.2-0.8-0.2
	l-1.6-25.6l-1,14.7c0,0.4-0.3,0.8-0.7,0.8s-0.7-0.2-0.8-0.6l-0.4-1.5l-0.8-0.1c-0.3,0-0.6-0.2-0.7-0.5l-0.7-2l-0.9,2.2
	c-0.1,0.3-0.4,0.5-0.7,0.5l-4.9,0.1c-0.2,0-0.5-0.1-0.6-0.3c-0.8-1-1.6-1.5-2.4-1.5c-1.3,0-2.4,1.4-2.4,1.4
	c-0.1,0.2-0.4,0.3-0.6,0.3l-2.7,0.1l-1.2,12.5c0,0.4-0.4,0.7-0.8,0.7c-0.4,0-0.7-0.3-0.8-0.7l-1.6-25.6l-0.8,14.3
	c0,0.4-0.3,0.7-0.7,0.7s-0.7-0.6-0.8-0.9l-0.5-1.8h-0.9c-0.3,0-0.6,0.2-0.8-0.2l-0.6-1.8l-0.7,1.7c-0.1,0.3-0.4,0.3-0.7,0.3h-9.9
	c-0.4,0-0.8-0.6-0.8-1s0.3-1,0.8-1h9.3l1.3-3.6c0.1-0.3,0.4-0.4,0.7-0.4l0,0c0.3,0,0.6,0.1,0.7,0.4l1.2,3.6h0.9l0,0l1.4-24.1
	c0-0.4,0.4-0.4,0.8-0.4c0.4,0,0.8,0.5,0.8,0.9l1.8,28.8l0.3-3.3c0-0.4,0.4-0.7,0.8-0.7l3.1-0.1c0.5-0.6,1.7-1.7,3.4-1.8
	c1.2,0,2.4,0.6,3.4,1.8l4-0.1l1.5-3.7c0.1-0.3,0.4-0.5,0.8-0.5c0.3,0,0.6,0.2,0.7,0.5l1.2,3.5l0.7,0.1l1.7-23.8
	c0-0.4,0.4-0.7,0.8-0.7c0.4,0,0.8,0.3,0.8,0.7l1.7,27.5l0.3-3c0-0.4,0.4-0.7,0.8-0.7l3.5,0.1c0.5-0.6,1.7-1.8,3.4-1.8
	c1.1,0,2.2,0.1,3.2,1.2l8.9-0.6l0,0c0.4,0,0.8,0.7,0.8,1.1C928.1,515.6,927.8,516.3,927.3,516.3z"/>
<path d="M926.4,596.4c-2.9-3.5-9.6-6-15.4-5.8c-6.2,0.3-7.8,2.8-13.2,3.3c0.3-1.2-0.3-3-0.4-4c-0.3-1.8-0.8-3.6-1.3-5.3
	c5.5,0.7,10.8,0.6,14.9-3.6c3.8-3.9,5.1-9.5,5.5-14.8c-5.1-0.8-10.7-1.4-15.1,1.4c-4.2,2.7-5.9,7.8-6.8,12.5
	c-0.7-1.9-1.4-3.8-2.2-5.7c-1.2-2.6-2.4-1.5-4.7-0.6c4.3,4.4,6.6,11.2,7.2,17.2c0.1,0.7-0.1,2,0.2,2.9c-5.8-0.4-7.3-3.1-13.7-3.4
	c-5.8-0.2-12.5,2.3-15.4,5.8c-9.1,10.8-8.6,25.5-3.3,38.4c2.2,5.5,5.2,10.8,9.8,14.8s10.9,6.4,17,5.4c1.4-0.2,3.3-0.6,5-0.6
	c1.2,0,2.4,0,3.6,0c1.7,0,3.6,0.3,5,0.6c6.1,1,12.5-1.5,17-5.4c4.6-4,7.6-9.3,9.8-14.8C935.1,621.9,935.5,607.3,926.4,596.4z
	 M903.3,571.7c2.6-2,7-4.6,10.4-3.5c0,0-0.1,0-0.2,0l0,0c-0.1,0,0,0,0,0c-3.6-0.2-7.5,2.6-10.1,4.7c-2.8,2.2-5.5,5.1-6.4,8.6
	C897,577.5,900.2,574,903.3,571.7z"/>
<path d="M956,711.7c-0.5-2.2-2-4-4-4.9c-1.7-0.8-4-1.4-6.8-1.3c-3.5,0.2-9.1,0.2-13.8-0.7c-2.8-0.5-5.3-2.3-6.6-4.9
	c-0.6-1.2-1.3-2.4-1.7-2.8c-1.1-1-1.6-0.6-1.6-0.6s-0.1-1.5-1.5-1.4s-2.4,0.5-2.4,0.5s-2.8-2.8-4.2-3s-3,0.4-3,0.4s-0.9-3.4-3.2-4.1
	c-1.6-0.5-3,0.2-3.7,0.6c-0.2-0.1-0.4-0.3-0.7-0.4c-0.4-1.3-1.2-4-2.6-4.1c-1.8-0.2-2.9,0.8-2.9,0.8s-0.2,0-0.4,0
	c-0.5-0.3-0.9-0.5-1.4-0.8c-0.2-1-0.8-3.2-1.8-4c-1.3-0.9-1.6,0-1.6,0s0.1-0.6-0.8-0.9c-0.4-0.1-1,0.8-1.4,1.8
	c-4.9-2.5-8.8-4.2-10.2-4.1c-5,0.3-6.9,5.2-6.2,7.6c0.7,2.3,2.9,4.1,2.9,4.1s-6.9,6.9-14.2,5.1c-7.3-1.7-12.5-8.7-15.9-8.6
	s-5.1,8.3-5.1,8.3l-0.7,0.6c-0.9,0.7-1.4,1.7-1.4,2.8v7.4c0,0-1.7,3.8-1.7,5.7s0,3.4,0,3.4s-1.4,0.8-1.3,4.3c0.1,3.5,1,7.8,1,7.8
	s22.4,9.9,63.3,7.5c40.9-2.4,53.1-9.7,55.2-15.2C956.6,716.1,956.4,713.6,956,711.7z M948,719.8c-12,3.7-25,5.9-38.5,6.8
	c-4,0.2-8,0.4-12,0.4c-7.3,0-14.7-0.4-22.2-1.2c-10.5-1.1-19-2.8-24.3-4c-3.2-0.7-5.5-1.3-6.9-1.7c-0.9-0.3-1.5-0.4-1.9-0.6l0,0
	c-0.5-0.1-0.7-0.7-0.4-1.1c0.2-0.3,0.5-0.4,0.8-0.3c1.2,0.4,4.5,1.3,9.3,2.4c5.3,1.2,13.8,2.8,24.2,3.9c17.8,1.8,44.6,2.3,71.6-6
	c0.4-0.1,0.8,0.1,0.9,0.5l0,0C948.6,719.3,948.4,719.7,948,719.8z"/>
<path d="M443,812.4v-25.6c0-4-3-6.8-7.1-6.8H428v-68h7.9c4.2,0,7.1-2.6,7.1-6.6v-25.6c0-4-3-7.9-7.1-7.9h-33.5
	c-4.2,0-7.4,3.8-7.4,7.9v25.6c0,4,3.2,6.6,7.4,6.6h8.6v68h-8.6c-4.2,0-7.4,2.8-7.4,6.8v25.6c0,4,3.2,7.6,7.4,7.6h33.5
	C440,820,443,816.4,443,812.4z"/>
<path d="M523.9,679H500v-5h3.2c0.5,0,1.8,0.1,1.8-0.4V672c0-0.5-1.3-2-1.8-2h-11.9c-0.5,0-1.3,1.4-1.3,2v1.7c0,0.5,0.8,0.4,1.3,0.4
	h2.7v5h-23.9c-1.6,0-2.1,1.8-2.1,3.5v5.9c0,1.7,0.5,2.6,2.1,2.6H470v11.4c0,4.6-0.8,8.9,2.6,11.9c2.1,1.9,3.6,4.8,3.6,8.1
	s-1.5,6.2-3.7,8.1c-3.4,3-2.6,7.3-2.6,11.9v73.9c0,2.1,2.2,3.6,4.2,3.6h45.3c2.1,0,3.6-1.6,3.6-3.8v-73.8c0-4.6,1.1-8.9-2.3-11.9
	c-2.1-1.9-3.4-4.8-3.4-8.1s1.3-6.2,3.4-8.1c3.4-3,2.3-7.3,2.3-11.9V691h0.9c1.6,0,3.1-1,3.1-2.6v-5.9C527,680.8,525.5,679,523.9,679
	z"/>
<path d="M260,698c2.5,0,5-1.1,5-3.7v-1.8c0-2.6-2.4-4.5-5-4.5h-5.1c1.6-1,3.1-1.8,3.1-3.7v-1.8c0-2.6-2.5-6.6-5-6.6h-16v-2v0.1
	c0-2.6-2.1-4.1-4.6-4.1h-1.7c-2.5,0-5.7,1.4-5.7,4v2h-15c-2.5,0-4,4-4,6.6v1.8c0,1.9,0.5,2.7,2.1,3.7H203c-2.5,0-4,1.9-4,4.5v1.8
	c0,2.6,1.5,3.7,4,3.7h21v92h-21.3c-2.5,0-3.7,2.9-3.7,5.5v1.8c0,2.6,1.2,3.8,3.7,3.8h5.1c-1.6,2-1.8,2.5-1.8,4.4v1.8
	c0,2.6,1.2,3.8,3.8,3.8H225v4.8h0.4c0,2.6,2.5,4.2,5,4.2h1.7c2.5,0,4.9-1.6,4.9-4.2V811h15.7c2.5,0,5.3-1.2,5.3-3.8v-1.8
	c0-1.9-1.8-2.4-3.3-4.4h5.1c2.5,0,5.2-1.2,5.2-3.8v-1.8c0-2.6-2.7-5.5-5.2-5.5H237v-92L260,698L260,698z"/>
<path d="M549.6,697.8v8c0,0.8,0.6,1.4,1.4,1.4h0.8c0.7,0,1.3,0.6,1.4,1.3l4.6,103.4c0.2,3.4,2.8,6.3,6.2,6.7l10.4,1.2
	c6,0.7,12.1,0.8,18.1,0.4l12.3-0.9c3.5-0.3,6.3-3.1,6.5-6.6l6.5-104.1c0-0.7,0.6-1.3,1.4-1.3c0.7,0,1.4-0.6,1.4-1.4
	c0.1-2.6,0-5.2,0-7.7c0-2.3-0.6-4.6-3-5.6c-0.8-0.3-1.7-0.5-2.5-0.8c-1.1-0.5-1.9-1.4-2.7-2.3c-1.6-1.8-1.6-3.4-1.9-5.6
	c-0.2-1.8-0.5-3.6-1-5.3c-0.8-2.8-2.3-7-5.8-7.2c-5.3-0.3-7.4,3.9-7.4,3.9s-10-6.3-27.4-6.1c-6.9,0.1-12.5,2.2-14.3,3
	c-0.4,0.2-0.6,0.6-0.4,1l0.1,0.2c0.1,0.3,0.4,0.5,0.7,0.5h1.2c0.5,0,0.9,0.5,0.8,1l-0.1,0.3c-0.1,0.5,0.3,1,0.8,1l0,0
	c0.5,0,0.9,0.4,0.8,0.9l-2.1,14.5C552.5,691.3,549.6,694.2,549.6,697.8z M579.2,677.3l1.7-0.2v-3.6c0,0,2.1,0.1,5.8,1.4
	c5.4,1.9,8.9,5.2,8.9,5.2s-5-1.3-9.5-1.6s-6.8,0.1-6.8,0.1v-1.3H579.2z"/>
<path d="M175.3,757.1c0.8-3.5,1.2-7.2,1.2-11c0-26.8-20.2-48.6-45.2-48.6s-45.2,21.8-45.2,48.6c0,3.8,0.4,7.4,1.2,11
	c-5.6,8.2-8.9,17.9-8.9,28.5c0,9.1,2.4,17.7,6.7,25.1c3.3,5.7,9.3,9.3,15.6,9.3h61.2c6.4,0,12.3-3.5,15.6-9.3
	c4.3-7.4,6.7-16,6.7-25.1C184.2,775.1,181,765.3,175.3,757.1z M131.3,711.7c19.9,0,36,13.1,36,34.5c0,0.6,0,1.2,0,1.8
	c-9.4-8.5-22.1-13.7-36-13.7s-26.5,5.2-36,13.7c0-0.6,0-1.2,0-1.8C95.3,724.8,111.4,711.7,131.3,711.7z"/>
</svg>
